<?xml version="1.0" encoding="utf-8"?>
<!-- Generator: Adobe Illustrator 16.0.4, SVG Export Plug-In . SVG Version: 6.00 Build 0)  -->
<!DOCTYPE svg PUBLIC "-//W3C//DTD SVG 1.1//EN" "http://www.w3.org/Graphics/SVG/1.1/DTD/svg11.dtd">
<svg version="1.1" id="Ebene_1" xmlns="http://www.w3.org/2000/svg" xmlns:xlink="http://www.w3.org/1999/xlink" x="0px" y="0px"
	 width="150px" height="150px" viewBox="0 0 150 150" enable-background="new 0 0 150 150" xml:space="preserve">
<path fill="#181716" d="M113.998,125.305v-24.43v-5.57v-6v-1.568V70.875v-11.57v-1.568c0-20.674-16.789-37.432-37.5-37.432
	s-37.5,16.758-37.5,37.432v1.568v11.57v16.861v1.568v6v5.57v24.43h5.5h62.5H113.998z M98.998,110.305h-45v-15h45V110.305z
	 M98.998,80.305h-10.5v-11.5c0-6.627-5.373-12-12-12s-12,5.373-12,12v11.5h-10.5v-22.5c0-12.426,10.074-22.5,22.5-22.5
	s22.5,10.074,22.5,22.5V80.305z"/>
</svg>
