<?xml version="1.0" encoding="utf-8"?>
<!-- Generator: Adobe Illustrator 16.0.4, SVG Export Plug-In . SVG Version: 6.00 Build 0)  -->
<!DOCTYPE svg PUBLIC "-//W3C//DTD SVG 1.1//EN" "http://www.w3.org/Graphics/SVG/1.1/DTD/svg11.dtd">
<svg version="1.1" id="Ebene_1" xmlns="http://www.w3.org/2000/svg" xmlns:xlink="http://www.w3.org/1999/xlink" x="0px" y="0px"
	 width="150px" height="150px" viewBox="0 0 150 150" enable-background="new 0 0 150 150" xml:space="preserve">
<path fill="#181716" d="M78,105.5c0,16.017,12.984,29,29,29s29-12.983,29-29v-29h-29C90.984,76.5,78,89.483,78,105.5z M121,105.5
	c0,7.732-6.268,14-14,14s-14-6.268-14-14s6.268-14,14-14h14V105.5z M44,76.5H15v29c0,16.017,12.984,29,29,29s29-12.983,29-29
	S60.016,76.5,44,76.5z M44,119.5c-7.732,0-14-6.268-14-14v-14h14c7.732,0,14,6.268,14,14S51.732,119.5,44,119.5z M118.995,38.249
	c0-13.396-19.473-24.254-43.495-24.254S32.005,24.854,32.005,38.249c0,13.395,19.473,24.253,43.495,24.253
	S118.995,51.644,118.995,38.249z M75.5,47.499c-12.148,0-21.996-4.253-21.996-9.5c0-5.246,9.848-9.499,21.996-9.499
	s21.996,4.253,21.996,9.499C97.496,43.246,87.648,47.499,75.5,47.499z"/>
</svg>
