<?xml version="1.0" encoding="utf-8"?>
<!-- Generator: Adobe Illustrator 16.0.4, SVG Export Plug-In . SVG Version: 6.00 Build 0)  -->
<!DOCTYPE svg PUBLIC "-//W3C//DTD SVG 1.1//EN" "http://www.w3.org/Graphics/SVG/1.1/DTD/svg11.dtd">
<svg version="1.1" id="Ebene_1" xmlns="http://www.w3.org/2000/svg" xmlns:xlink="http://www.w3.org/1999/xlink" x="0px" y="0px"
	 width="150px" height="150px" viewBox="0 0 150 150" enable-background="new 0 0 150 150" xml:space="preserve">
<path fill="#181716" d="M46.958,49.078c-3.08,6.35-3.95,13.803-1.905,21.135C48.031,80.896,56.431,88.6,66.445,91.197v1.913h-24v45
	h62.5v-45h-23.5v-1.916c0.188-0.049,0.375-0.09,0.563-0.142c15.959-4.45,25.29-20.996,20.839-36.956
	c-0.498-1.786-1.155-3.483-1.938-5.093c8.813-4.502,13.542-14.722,10.781-24.625C108.538,13.075,96.818,6.466,85.513,9.618
	c-10.176,2.837-16.542,12.617-15.415,22.787c-0.103,0.013-0.207,0.031-0.31,0.045c-2.797-6.617-10.137-10.288-17.241-8.307
	c-7.714,2.151-12.223,10.148-10.072,17.862C43.271,44.861,44.87,47.275,46.958,49.078z M89.945,108.11v15h-32.5v-15H89.945z
	 M89.167,23.652c3.458-0.964,7.043,1.058,8.007,4.515c0.964,3.458-1.058,7.043-4.516,8.007s-7.042-1.058-8.007-4.515
	C83.688,28.202,85.709,24.617,89.167,23.652z M69.92,47.706c7.98-2.225,16.253,2.44,18.478,10.42
	c2.225,7.979-2.44,16.252-10.42,18.478c-7.979,2.225-16.252-2.44-18.478-10.42C57.276,58.204,61.941,49.931,69.92,47.706z"/>
</svg>
