<?xml version="1.0" encoding="utf-8"?>
<!-- Generator: Adobe Illustrator 16.0.4, SVG Export Plug-In . SVG Version: 6.00 Build 0)  -->
<!DOCTYPE svg PUBLIC "-//W3C//DTD SVG 1.1//EN" "http://www.w3.org/Graphics/SVG/1.1/DTD/svg11.dtd">
<svg version="1.1" id="Ebene_1" xmlns="http://www.w3.org/2000/svg" xmlns:xlink="http://www.w3.org/1999/xlink" x="0px" y="0px"
	 width="150px" height="150px" viewBox="0 0 150 150" enable-background="new 0 0 150 150" xml:space="preserve">
<path fill="#181716" d="M73.945,139.614l66.007-34.254L89.368,79.11l50.584-26.25L73.945,18.606L7.938,52.86l50.584,26.25
	L7.938,105.36L73.945,139.614z M108.449,52.36l-11.465,6.021L84.848,52.26l11.676-6.162L108.449,52.36z M86.106,64.094
	l-12.411,6.518l-11.839-6.218l12.141-6.408L86.106,64.094z M73.695,34.108l12.09,6.35l-11.892,6.276l-12.364-6.236L73.695,34.108z
	 M51.117,58.755L38.941,52.36l11.709-6.149l12.392,6.25L51.117,58.755z M73.741,86.616l34.708,18.244l-34.754,18.252L38.941,104.86
	L73.741,86.616z"/>
</svg>
