<?xml version="1.0" encoding="utf-8"?>
<!-- Generator: Adobe Illustrator 16.0.4, SVG Export Plug-In . SVG Version: 6.00 Build 0)  -->
<!DOCTYPE svg PUBLIC "-//W3C//DTD SVG 1.1//EN" "http://www.w3.org/Graphics/SVG/1.1/DTD/svg11.dtd">
<svg version="1.1" id="Ebene_1" xmlns="http://www.w3.org/2000/svg" xmlns:xlink="http://www.w3.org/1999/xlink" x="0px" y="0px"
	 width="150px" height="150px" viewBox="0 0 150 150" enable-background="new 0 0 150 150" xml:space="preserve">
<path fill-rule="evenodd" clip-rule="evenodd" fill="#181716" d="M139.111,76.568l-7.465,12.91l-10.443-6.021
	c-0.186,0.11-0.367,0.223-0.557,0.325v51.831h-15V83.496c-4.488-2.654-7.5-7.541-7.5-13.133c0-0.065,0.004-0.13,0.005-0.195
	l-77.83-44.871l7.465-12.909l77.821,44.865c2.28-1.357,4.943-2.14,7.789-2.14c8.422,0,15.25,6.828,15.25,15.25
	c0,0.057-0.006,0.112-0.006,0.169L139.111,76.568z M50.646,85.613h-10v50h-15v-50h-10v-15h35V85.613z"/>
</svg>
