<?xml version="1.0" encoding="utf-8"?>
<!-- Generator: Adobe Illustrator 16.0.4, SVG Export Plug-In . SVG Version: 6.00 Build 0)  -->
<!DOCTYPE svg PUBLIC "-//W3C//DTD SVG 1.1//EN" "http://www.w3.org/Graphics/SVG/1.1/DTD/svg11.dtd">
<svg version="1.1" id="Ebene_1" xmlns="http://www.w3.org/2000/svg" xmlns:xlink="http://www.w3.org/1999/xlink" x="0px" y="0px"
	 width="150px" height="150px" viewBox="0 0 150 150" enable-background="new 0 0 150 150" xml:space="preserve">
<path fill="#181716" d="M45,23.75c0-6.213,5.037-11.25,11.25-11.25c3.669,0,6.918,1.765,8.972,4.483
	c0.021-0.009,0.042-0.019,0.064-0.027C67.792,18.827,71.324,20,75.25,20c3.916,0,7.44-1.166,9.945-3.028
	c0.023,0.01,0.045,0.021,0.068,0.031c2.053-2.729,5.309-4.503,8.987-4.503c6.213,0,11.25,5.037,11.25,11.25
	c0,4.097-2.197,7.671-5.47,9.639C93.865,38.376,85.046,41.5,75.25,41.5c-9.774,0-18.57-3.114-24.732-8.082
	C47.218,31.457,45,27.867,45,23.75z M120.5,44.5h15v15h-15V79c0,7.112-4.952,13.064-11.595,14.607l4.316,44.893H97.5l-5-44.5h-35
	l-5,44.5H36.779l4.298-44.697C33.945,92.644,28.5,86.459,28.5,79V59.5h-15v-15h15h15h62H120.5z M105.5,59.5h-62V79h62V59.5z"/>
</svg>
