<?xml version="1.0" encoding="utf-8"?>
<!-- Generator: Adobe Illustrator 16.0.4, SVG Export Plug-In . SVG Version: 6.00 Build 0)  -->
<!DOCTYPE svg PUBLIC "-//W3C//DTD SVG 1.1//EN" "http://www.w3.org/Graphics/SVG/1.1/DTD/svg11.dtd">
<svg version="1.1" id="Ebene_1" xmlns="http://www.w3.org/2000/svg" xmlns:xlink="http://www.w3.org/1999/xlink" x="0px" y="0px"
	 width="150px" height="150px" viewBox="0 0 150 150" enable-background="new 0 0 150 150" xml:space="preserve">
<path fill="#181716" d="M108.5,124.5v-15H40v15H25v-15V103v-8.5h98.5v8.5v6.5v15H108.5z M109,89.225H74.5
	c-0.111,0-0.222-0.007-0.332-0.008c-0.057,0.001-0.111,0.008-0.168,0.008H25.5c-4.143,0-7.5-3.357-7.5-7.5
	c0-4.142,3.357-7.5,7.5-7.5h27.785C52.456,71.879,52,69.355,52,66.725c0-12.426,10.073-22.5,22.5-22.5H109
	c12.427,0,22.5,10.074,22.5,22.5C131.5,79.151,121.427,89.225,109,89.225z M116.5,66.725c0-4.142-3.357-7.5-7.5-7.5H74.5
	c-4.143,0-7.5,3.358-7.5,7.5c0,4.143,3.357,7.5,7.5,7.5H109C113.143,74.225,116.5,70.867,116.5,66.725z M23.5,57.975
	c0,6.214,5.037,11.25,11.25,11.25S46,64.188,46,57.975c0-6.213-5.037-11.25-11.25-11.25S23.5,51.762,23.5,57.975z"/>
</svg>
