<?xml version="1.0" encoding="utf-8"?>
<!-- Generator: Adobe Illustrator 16.0.4, SVG Export Plug-In . SVG Version: 6.00 Build 0)  -->
<!DOCTYPE svg PUBLIC "-//W3C//DTD SVG 1.1//EN" "http://www.w3.org/Graphics/SVG/1.1/DTD/svg11.dtd">
<svg version="1.1" id="Ebene_1" xmlns="http://www.w3.org/2000/svg" xmlns:xlink="http://www.w3.org/1999/xlink" x="0px" y="0px"
	 width="150px" height="150px" viewBox="0 0 150 150" enable-background="new 0 0 150 150" xml:space="preserve">
<path fill="#181716" d="M68.498,130.805V78.994c-4.201-2.66-6.993-7.346-6.993-12.689c0-8.287,6.714-15.006,14.995-15.006
	c8.283,0,14.996,6.719,14.996,15.006c0,5.76-3.242,10.758-7.998,13.273v51.227H68.498z M111.858,30.951
	C120.9,40,126.494,52.496,126.494,66.299c0,13.934-5.701,26.533-14.896,35.6l10.604,10.605
	c11.909-11.781,19.289-28.133,19.289-46.207c0-17.943-7.271-34.189-19.027-45.951L111.858,30.951z M104.78,38.029l-10.599,10.6
	c4.52,4.523,7.314,10.768,7.314,17.668c0,7.029-2.906,13.379-7.579,17.92l10.618,10.619c7.379-7.258,11.959-17.352,11.959-28.52
	C116.494,55.27,112.018,45.27,104.78,38.029z M48.22,38.033c-7.235,7.238-11.71,17.238-11.71,28.283
	c0,11.166,4.578,21.258,11.955,28.516l10.609-10.609C54.398,79.68,51.49,73.33,51.49,66.297c0-6.902,2.796-13.15,7.318-17.674
	L48.22,38.033z M41.393,101.904c-9.197-9.068-14.9-21.67-14.9-35.605c0-13.805,5.596-26.305,14.641-35.352L30.524,20.338
	C18.765,32.102,11.491,48.35,11.491,66.297c0,18.078,7.382,34.432,19.295,46.213L41.393,101.904z"/>
</svg>
