<?xml version="1.0" encoding="utf-8"?>
<!-- Generator: Adobe Illustrator 16.0.4, SVG Export Plug-In . SVG Version: 6.00 Build 0)  -->
<!DOCTYPE svg PUBLIC "-//W3C//DTD SVG 1.1//EN" "http://www.w3.org/Graphics/SVG/1.1/DTD/svg11.dtd">
<svg version="1.1" id="Ebene_1" xmlns="http://www.w3.org/2000/svg" xmlns:xlink="http://www.w3.org/1999/xlink" x="0px" y="0px"
	 width="150px" height="150px" viewBox="0 0 150 150" enable-background="new 0 0 150 150" xml:space="preserve">
<path fill="#181716" d="M103.185,132.391l0.588,0.104l0.021-0.104h0.082v-0.409l14.891-76.067c0.09-1.14,0.141-2.29,0.141-3.453
	C118.906,27.906,98.94,8,74.312,8S29.719,27.906,29.719,52.461c0,1.163,0.051,2.313,0.141,3.453l14.738,76.471l0.153-0.027v0.033
	H103.185z M91.452,117.404h-34.63l-9.217-46.46h53.082L91.452,117.404z M74.312,22.987c16.326,0,29.562,13.195,29.562,29.474
	c0,1.185-0.078,2.35-0.216,3.497H44.966c-0.137-1.147-0.215-2.312-0.215-3.497C44.751,36.183,57.986,22.987,74.312,22.987z"/>
</svg>
