<?xml version="1.0" encoding="utf-8"?>
<!-- Generator: Adobe Illustrator 16.0.4, SVG Export Plug-In . SVG Version: 6.00 Build 0)  -->
<!DOCTYPE svg PUBLIC "-//W3C//DTD SVG 1.1//EN" "http://www.w3.org/Graphics/SVG/1.1/DTD/svg11.dtd">
<svg version="1.1" id="Ebene_1" xmlns="http://www.w3.org/2000/svg" xmlns:xlink="http://www.w3.org/1999/xlink" x="0px" y="0px"
	 width="150px" height="150px" viewBox="0 0 150 150" enable-background="new 0 0 150 150" xml:space="preserve">
<path fill="#181716" d="M97,87.959c10.877-7.59,18-20.189,18-34.459c0-23.196-18.804-42-42-42s-42,18.804-42,42
	c0,12.375,5.354,23.496,13.869,31.182c0.862,0.747,1.962,1.666,3.176,2.597c0.479,0.354,0.962,0.702,1.455,1.035v0.043
	c1.646,1.175,3.395,2.265,4.98,2.926c2.999,1.25,5.408,2.253,5.408,2.253L97,105.705V87.959z M84.992,76.665
	c0-0.055,0.008-0.109,0.008-0.165C85,69.597,79.403,64,72.5,64c-6.684,0-12.127,5.25-12.467,11.85
	C52.526,71.351,47.5,63.139,47.5,53.75C47.5,39.529,59.028,28,73.25,28S99,39.529,99,53.75C99,63.74,93.307,72.395,84.992,76.665z
	 M97,124.705l-47.5-15.574v-12.5L97,112.205V124.705z M96.725,130.115L72.98,140L49.5,130v-9.5v-5.869L96.725,130.115z"/>
</svg>
