<?xml version="1.0" encoding="utf-8"?>
<!-- Generator: Adobe Illustrator 16.0.4, SVG Export Plug-In . SVG Version: 6.00 Build 0)  -->
<!DOCTYPE svg PUBLIC "-//W3C//DTD SVG 1.1//EN" "http://www.w3.org/Graphics/SVG/1.1/DTD/svg11.dtd">
<svg version="1.1" id="Ebene_1" xmlns="http://www.w3.org/2000/svg" xmlns:xlink="http://www.w3.org/1999/xlink" x="0px" y="0px"
	 width="150px" height="150px" viewBox="0 0 150 150" enable-background="new 0 0 150 150" xml:space="preserve">
<path fill="#181716" d="M55.144,107.875H25.383V92.956h44.679l0.026-0.026l0.027,0.026h4.894h0.18h4.658l0.027-0.026l0.026,0.026
	h44.916v14.919H94.818l20.273,20.273l-10.549,10.549L82.68,116.834v26.122H67.761v-26.601l-22.342,22.342L34.87,128.148
	L55.144,107.875z M45.521,57.715c0-23.568,29.488-48.367,29.488-48.367s29.488,24.469,29.488,48.367
	c0,16.286-13.202,29.487-29.488,29.487C58.724,87.202,45.521,74,45.521,57.715z M60.932,58.301c0,7.769,6.262,14.067,13.987,14.067
	c7.725,0,13.987-6.298,13.987-14.067c0-11.401-13.87-26.012-13.87-26.012S60.932,47.057,60.932,58.301z"/>
</svg>
