<?xml version="1.0" encoding="utf-8"?>
<!-- Generator: Adobe Illustrator 16.0.4, SVG Export Plug-In . SVG Version: 6.00 Build 0)  -->
<!DOCTYPE svg PUBLIC "-//W3C//DTD SVG 1.1//EN" "http://www.w3.org/Graphics/SVG/1.1/DTD/svg11.dtd">
<svg version="1.1" id="Ebene_1" xmlns="http://www.w3.org/2000/svg" xmlns:xlink="http://www.w3.org/1999/xlink" x="0px" y="0px"
	 width="150px" height="150px" viewBox="0 0 150 150" enable-background="new 0 0 150 150" xml:space="preserve">
<path fill="#181716" d="M128.88,65.5c0,0-36.721,0-45.005,0L83.88,16h30c8.284,0,15,6.716,15,15v10.5V60V65.5z M18.513,16
	c-0.005,0.166-0.013,0.332-0.013,0.5v34c0,8.284,6.716,15,15,15h25c8.284,0,15-6.716,15-15v-34c0-0.168-0.007-0.334-0.013-0.5H58.5
	v30h-5V16h-15v30h-5V16H18.513z M24.5,116.586V70.497h45v46.089C69.5,128.965,59.426,139,47,139S24.5,128.965,24.5,116.586z
	 M39.5,116.521c0,4.139,3.358,7.493,7.5,7.493s7.5-3.354,7.5-7.493V85.549h-15V116.521z M106.38,139
	c-12.427,0-22.5-10.035-22.5-22.414V70.497h45v46.089C128.88,128.965,118.806,139,106.38,139z M113.88,85.549h-15v30.972
	c0,4.139,3.357,7.493,7.5,7.493c4.142,0,7.5-3.354,7.5-7.493V85.549z"/>
</svg>
