<?xml version="1.0" encoding="utf-8"?>
<!-- Generator: Adobe Illustrator 16.0.4, SVG Export Plug-In . SVG Version: 6.00 Build 0)  -->
<!DOCTYPE svg PUBLIC "-//W3C//DTD SVG 1.1//EN" "http://www.w3.org/Graphics/SVG/1.1/DTD/svg11.dtd">
<svg version="1.1" id="Ebene_1" xmlns="http://www.w3.org/2000/svg" xmlns:xlink="http://www.w3.org/1999/xlink" x="0px" y="0px"
	 width="150px" height="150px" viewBox="0 0 150 150" enable-background="new 0 0 150 150" xml:space="preserve">
<path fill-rule="evenodd" clip-rule="evenodd" fill="#181716" d="M131.193,51.675l-20.87,20.367
	c-6.96,6.961-17.329,8.435-25.734,4.426l-6.446,6.446c4.017,8.408,2.544,18.782-4.42,25.747l-20.87,20.87
	c-8.833,8.833-23.155,8.833-31.989,0c-8.833-8.833-8.833-23.156,0-31.99l20.87-20.87c6.964-6.964,17.339-8.436,25.747-4.42
	l6.439-6.439c-4.023-8.41-2.553-18.791,4.415-25.759l20.87-20.368c8.833-8.833,23.156-8.833,31.99,0
	C140.026,28.519,140.026,42.841,131.193,51.675z M31.526,108.205c-2.944,2.944-2.944,7.718,0,10.663
	c2.945,2.944,7.719,2.944,10.664,0l20.87-20.87c0.054-0.054,0.104-0.109,0.156-0.165c-2.955,2.786-7.608,2.735-10.499-0.156
	c-2.891-2.891-2.941-7.544-0.155-10.499c-0.056,0.051-0.11,0.102-0.165,0.155L31.526,108.205z M120.529,30.348
	c-2.944-2.944-7.719-2.944-10.663,0l-20.87,20.368c-0.102,0.102-0.199,0.207-0.295,0.313l0.285-0.285
	c2.944-2.944,7.718-2.944,10.663,0c2.86,2.859,2.941,7.444,0.248,10.403l20.633-20.136
	C123.474,38.067,123.474,33.293,120.529,30.348z"/>
</svg>
