<?xml version="1.0" encoding="utf-8"?>
<!-- Generator: Adobe Illustrator 16.0.4, SVG Export Plug-In . SVG Version: 6.00 Build 0)  -->
<!DOCTYPE svg PUBLIC "-//W3C//DTD SVG 1.1//EN" "http://www.w3.org/Graphics/SVG/1.1/DTD/svg11.dtd">
<svg version="1.1" id="Ebene_1" xmlns="http://www.w3.org/2000/svg" xmlns:xlink="http://www.w3.org/1999/xlink" x="0px" y="0px"
	 width="150px" height="150px" viewBox="0 0 150 150" enable-background="new 0 0 150 150" xml:space="preserve">
<path fill="#181716" d="M114.5,37c0-12.427-10.073-22.5-22.5-22.5H60c-12.427,0-22.5,10.073-22.5,22.5
	c0,9.226,5.555,17.15,13.5,20.622V75H36v15h5v44.5h15V90h38.5v44.5h15V90h5V75H101V57.622C108.945,54.15,114.5,46.226,114.5,37z
	 M86,75H66V59.5h20V75z M92,44.5H60c-4.143,0-7.5-3.357-7.5-7.5s3.357-7.5,7.5-7.5h32c4.143,0,7.5,3.357,7.5,7.5
	S96.143,44.5,92,44.5z"/>
</svg>
