<?xml version="1.0" encoding="utf-8"?>
<!-- Generator: Adobe Illustrator 16.0.4, SVG Export Plug-In . SVG Version: 6.00 Build 0)  -->
<!DOCTYPE svg PUBLIC "-//W3C//DTD SVG 1.1//EN" "http://www.w3.org/Graphics/SVG/1.1/DTD/svg11.dtd">
<svg version="1.1" id="Ebene_1" xmlns="http://www.w3.org/2000/svg" xmlns:xlink="http://www.w3.org/1999/xlink" x="0px" y="0px"
	 width="150px" height="150px" viewBox="0 0 150 150" enable-background="new 0 0 150 150" xml:space="preserve">
<path fill="#181716" d="M75.498,129.805c30.928,0,56-25.072,56-56s-25.072-56-56-56s-56,25.072-56,56S44.57,129.805,75.498,129.805z
	 M75.498,32.805c22.644,0,41,18.356,41,41c0,9.255-3.069,17.791-8.241,24.653L50.846,41.046
	C57.707,35.874,66.243,32.805,75.498,32.805z M40.706,52.12l56.478,56.477c-6.292,3.93-13.721,6.208-21.686,6.208
	c-22.644,0-41-18.356-41-41C34.498,65.84,36.776,58.412,40.706,52.12z"/>
</svg>
