<?xml version="1.0" encoding="utf-8"?>
<!-- Generator: Adobe Illustrator 16.0.4, SVG Export Plug-In . SVG Version: 6.00 Build 0)  -->
<!DOCTYPE svg PUBLIC "-//W3C//DTD SVG 1.1//EN" "http://www.w3.org/Graphics/SVG/1.1/DTD/svg11.dtd">
<svg version="1.1" id="Ebene_1" xmlns="http://www.w3.org/2000/svg" xmlns:xlink="http://www.w3.org/1999/xlink" x="0px" y="0px"
	 width="150px" height="150px" viewBox="0 0 150 150" enable-background="new 0 0 150 150" xml:space="preserve">
<path fill="#181716" d="M76.498,128.805c30.928,0,56-25.072,56-56s-25.072-56-56-56s-56,25.072-56,56S45.57,128.805,76.498,128.805z
	 M76.498,31.805c22.644,0,41,18.356,41,41s-18.356,41-41,41s-41-18.356-41-41S53.854,31.805,76.498,31.805z M61.505,72.806
	c0-8.288,6.714-15.006,14.995-15.006c8.283,0,14.996,6.719,14.996,15.006S84.783,87.812,76.5,87.812
	C68.219,87.812,61.505,81.093,61.505,72.806z"/>
</svg>
