<?xml version="1.0" encoding="utf-8"?>
<!-- Generator: Adobe Illustrator 16.0.4, SVG Export Plug-In . SVG Version: 6.00 Build 0)  -->
<!DOCTYPE svg PUBLIC "-//W3C//DTD SVG 1.1//EN" "http://www.w3.org/Graphics/SVG/1.1/DTD/svg11.dtd">
<svg version="1.1" id="Ebene_1" xmlns="http://www.w3.org/2000/svg" xmlns:xlink="http://www.w3.org/1999/xlink" x="0px" y="0px"
	 width="150px" height="150px" viewBox="0 0 150 150" enable-background="new 0 0 150 150" xml:space="preserve">
<path fill="#181716" d="M106.5,80.5C91.864,80.5,80,92.364,80,107s11.864,26.5,26.5,26.5S133,121.636,133,107
	S121.136,80.5,106.5,80.5z M106.5,118.5c-6.352,0-11.5-5.148-11.5-11.5s5.148-11.5,11.5-11.5c6.351,0,11.5,5.148,11.5,11.5
	S112.851,118.5,106.5,118.5z M106.5,17.5C91.864,17.5,80,29.364,80,44s11.864,26.5,26.5,26.5S133,58.636,133,44
	S121.136,17.5,106.5,17.5z M106.5,55.5C100.148,55.5,95,50.352,95,44s5.148-11.5,11.5-11.5c6.351,0,11.5,5.148,11.5,11.5
	S112.851,55.5,106.5,55.5z M17,107c0-14.636,11.864-26.5,26.5-26.5S70,92.364,70,107s-11.864,26.5-26.5,26.5S17,121.636,17,107z
	 M43.5,70.5C58.136,70.5,70,58.636,70,44S58.136,17.5,43.5,17.5S17,29.364,17,44S28.864,70.5,43.5,70.5z M43.5,32.5
	C49.851,32.5,55,37.648,55,44s-5.149,11.5-11.5,11.5C37.148,55.5,32,50.352,32,44S37.148,32.5,43.5,32.5z"/>
</svg>
