<?xml version="1.0" encoding="utf-8"?>
<!-- Generator: Adobe Illustrator 16.0.4, SVG Export Plug-In . SVG Version: 6.00 Build 0)  -->
<!DOCTYPE svg PUBLIC "-//W3C//DTD SVG 1.1//EN" "http://www.w3.org/Graphics/SVG/1.1/DTD/svg11.dtd">
<svg version="1.1" id="Ebene_1" xmlns="http://www.w3.org/2000/svg" xmlns:xlink="http://www.w3.org/1999/xlink" x="0px" y="0px"
	 width="150px" height="150px" viewBox="0 0 150 150" enable-background="new 0 0 150 150" xml:space="preserve">
<path fill="#181716" d="M123.5,63c4.142,0,7.5-3.357,7.5-7.5s-3.358-7.5-7.5-7.5H115V34h-13v-7.5c0-4.143-3.358-7.5-7.5-7.5
	S87,22.357,87,26.5V34h-5v-7.5c0-4.143-3.358-7.5-7.5-7.5S67,22.357,67,26.5V34h-5v-7.5c0-4.143-3.358-7.5-7.5-7.5
	S47,22.357,47,26.5V34H32.5v14H26c-4.142,0-7.5,3.357-7.5,7.5S21.858,63,26,63h6.5v5H26c-4.142,0-7.5,3.357-7.5,7.5S21.858,83,26,83
	h6.5v5H26c-4.142,0-7.5,3.357-7.5,7.5s3.358,7.5,7.5,7.5h6.5v13.5H47v7.5c0,4.143,3.358,7.5,7.5,7.5s7.5-3.357,7.5-7.5v-7.5h5v7.5
	c0,4.143,3.358,7.5,7.5,7.5s7.5-3.357,7.5-7.5v-7.5h5v7.5c0,4.143,3.358,7.5,7.5,7.5s7.5-3.357,7.5-7.5v-7.5h13V103h8.5
	c4.142,0,7.5-3.357,7.5-7.5s-3.358-7.5-7.5-7.5H115v-5h8.5c4.142,0,7.5-3.357,7.5-7.5s-3.358-7.5-7.5-7.5H115v-5H123.5z M100,101.5
	H47.5V49H100V101.5z"/>
</svg>
