<?xml version="1.0" encoding="utf-8"?>
<!-- Generator: Adobe Illustrator 16.0.4, SVG Export Plug-In . SVG Version: 6.00 Build 0)  -->
<!DOCTYPE svg PUBLIC "-//W3C//DTD SVG 1.1//EN" "http://www.w3.org/Graphics/SVG/1.1/DTD/svg11.dtd">
<svg version="1.1" id="Ebene_1" xmlns="http://www.w3.org/2000/svg" xmlns:xlink="http://www.w3.org/1999/xlink" x="0px" y="0px"
	 width="150px" height="150px" viewBox="0 0 150 150" enable-background="new 0 0 150 150" xml:space="preserve">
<path fill="#181716" d="M131.498,79.305H104.49c0.653-2.474,1.005-5.07,1.005-7.749c0-2.5-0.309-4.927-0.88-7.251h26.883V79.305z
	 M66.998,100.667v28.138h15v-27.751c-2.17,0.495-4.426,0.765-6.744,0.765C72.391,101.818,69.623,101.412,66.998,100.667z
	 M81.998,14.805h-15v27.639c2.625-0.744,5.393-1.151,8.256-1.151c2.318,0,4.574,0.27,6.744,0.765V14.805z M60.505,71.806
	c0,8.288,6.714,15.006,14.995,15.006c8.283,0,14.996-6.719,14.996-15.006S83.783,56.799,75.5,56.799
	C67.219,56.799,60.505,63.518,60.505,71.806z M45.012,71.556c0-2.5,0.309-4.927,0.879-7.251H17.498v15h28.518
	C45.363,76.832,45.012,74.235,45.012,71.556z"/>
</svg>
