<?xml version="1.0" encoding="utf-8"?>
<!-- Generator: Adobe Illustrator 16.0.4, SVG Export Plug-In . SVG Version: 6.00 Build 0)  -->
<!DOCTYPE svg PUBLIC "-//W3C//DTD SVG 1.1//EN" "http://www.w3.org/Graphics/SVG/1.1/DTD/svg11.dtd">
<svg version="1.1" id="Ebene_1" xmlns="http://www.w3.org/2000/svg" xmlns:xlink="http://www.w3.org/1999/xlink" x="0px" y="0px"
	 width="150px" height="150px" viewBox="0 0 150 150" enable-background="new 0 0 150 150" xml:space="preserve">
<path fill="#181716" d="M43.955,43.61c-6.903,0-12.5-5.596-12.5-12.5c0-6.903,5.597-12.5,12.5-12.5c6.904,0,12.5,5.597,12.5,12.5
	C56.455,38.014,50.859,43.61,43.955,43.61z M20.959,131.011l14.916-25.835H24.955l10.067-44.555c0-7.738,6.238-14.01,13.933-14.01
	c7.695,0,13.934,6.272,13.934,14.01l10.066,44.555h-7v32.435h-15v-28.553L33.95,138.511L20.959,131.011z M42.955,90.11h11.5
	l-5.5-25.999L42.955,90.11z M108.461,30.811c0-6.903-5.597-12.5-12.5-12.5s-12.5,5.597-12.5,12.5c0,6.904,5.597,12.5,12.5,12.5
	S108.461,37.714,108.461,30.811z M78.699,46.21v-23c0-4.142-3.357-7.5-7.5-7.5c-4.142,0-7.5,3.358-7.5,7.5v23
	c0,4.142,3.358,7.5,7.5,7.5C75.341,53.71,78.699,50.352,78.699,46.21z M116.659,79.876c0,5.159-1.751,9.908-4.687,13.698
	l23.221,30.604l-11.95,9.067l-23.926-31.534c-1.657,0.388-3.383,0.599-5.158,0.599c-1.019,0-2.019-0.074-3-0.204v35.204h-15V93.337
	c-2.825-3.75-4.5-8.41-4.5-13.461v-11.13c0-12.391,10.073-22.435,22.5-22.435c12.426,0,22.5,10.044,22.5,22.435V79.876z
	 M101.659,68.811c0-4.142-3.358-7.5-7.5-7.5c-4.143,0-7.5,3.358-7.5,7.5v11c0,4.142,3.357,7.5,7.5,7.5c4.142,0,7.5-3.358,7.5-7.5
	V68.811z M137.978,31.314l-19.954,11.5c-3.594,2.071-4.825,6.658-2.75,10.245c2.074,3.587,6.67,4.816,10.264,2.745l19.954-11.5
	c3.594-2.071,4.825-6.658,2.75-10.245C146.167,30.472,141.572,29.243,137.978,31.314z M29.818,58.388
	c2.929-2.929,2.929-7.678,0-10.607c-2.929-2.929-7.678-2.929-10.606,0L2.948,64.044c-2.929,2.929-2.929,7.678,0,10.606
	c2.929,2.929,7.678,2.929,10.606,0L29.818,58.388z"/>
</svg>
