<?xml version="1.0" encoding="utf-8"?>
<!-- Generator: Adobe Illustrator 16.0.4, SVG Export Plug-In . SVG Version: 6.00 Build 0)  -->
<!DOCTYPE svg PUBLIC "-//W3C//DTD SVG 1.1//EN" "http://www.w3.org/Graphics/SVG/1.1/DTD/svg11.dtd">
<svg version="1.1" id="Ebene_1" xmlns="http://www.w3.org/2000/svg" xmlns:xlink="http://www.w3.org/1999/xlink" x="0px" y="0px"
	 width="150px" height="150px" viewBox="0 0 150 150" enable-background="new 0 0 150 150" xml:space="preserve">
<path fill="#181716" d="M143.484,42.827l-21.888,37.892c-2.085,3.609-6.702,4.846-10.313,2.762
	c-3.611-2.084-4.849-6.698-2.764-10.308l21.888-37.892c2.084-3.609,6.702-4.846,10.313-2.762
	C144.332,34.604,145.569,39.219,143.484,42.827z M105.5,92v40.5h-10h-5h-30H52h-6.5V92c0-11.034,5.961-20.67,14.834-25.881
	C55.828,62.005,53,56.083,53,49.5C53,37.073,63.074,27,75.5,27S98,37.073,98,49.5c0,6.583-2.828,12.505-7.334,16.619
	C99.539,71.33,105.5,80.966,105.5,92z M68,49.5c0,4.143,3.358,7.5,7.5,7.5s7.5-3.357,7.5-7.5S79.642,42,75.5,42S68,45.357,68,49.5z
	 M90.5,92c0-8.284-6.716-15-15-15s-15,6.716-15,15v25.5h30V92z M21.053,35.137c-2.082-3.605-6.691-4.84-10.296-2.759
	c-3.605,2.081-4.84,6.69-2.759,10.296L29.849,80.52c2.081,3.605,6.691,4.841,10.296,2.759c3.605-2.081,4.84-6.69,2.759-10.296
	L21.053,35.137z"/>
</svg>
