<?xml version="1.0" encoding="utf-8"?>
<!-- Generator: Adobe Illustrator 16.0.4, SVG Export Plug-In . SVG Version: 6.00 Build 0)  -->
<!DOCTYPE svg PUBLIC "-//W3C//DTD SVG 1.1//EN" "http://www.w3.org/Graphics/SVG/1.1/DTD/svg11.dtd">
<svg version="1.1" id="Ebene_1" xmlns="http://www.w3.org/2000/svg" xmlns:xlink="http://www.w3.org/1999/xlink" x="0px" y="0px"
	 width="150px" height="150px" viewBox="0 0 150 150" enable-background="new 0 0 150 150" xml:space="preserve">
<path fill-rule="evenodd" clip-rule="evenodd" fill="#181716" d="M97.325,82v9.5v13v30h-49v-30v-13v-40h13h8.377h15.169h12.454
	v15.499c7.037-0.005,12.74-5.711,12.74-12.749s-5.703-12.744-12.74-12.749V41.5H72.67H61.325h-28.5v-15h25.5v-15h29v15h10l0,0
	c15.321,0.006,27.74,12.428,27.74,27.75S112.646,81.994,97.325,82z M82.325,104.5v-13V80v-2.402V66.5h-9.911h-2.589h-6.5v25v13v15
	h19V104.5z"/>
</svg>
