<?xml version="1.0" encoding="utf-8"?>
<!-- Generator: Adobe Illustrator 16.0.4, SVG Export Plug-In . SVG Version: 6.00 Build 0)  -->
<!DOCTYPE svg PUBLIC "-//W3C//DTD SVG 1.1//EN" "http://www.w3.org/Graphics/SVG/1.1/DTD/svg11.dtd">
<svg version="1.1" id="Ebene_1" xmlns="http://www.w3.org/2000/svg" xmlns:xlink="http://www.w3.org/1999/xlink" x="0px" y="0px"
	 width="150px" height="150px" viewBox="0 0 150 150" enable-background="new 0 0 150 150" xml:space="preserve">
<path fill="#181716" d="M120.393,55.839l8.101-14.017l-13.021-7.51l-7.635,13.208c-7.434-3.839-15.645-6.382-24.34-7.314v-15.9h-15
	v15.9c-8.846,0.949-17.191,3.561-24.726,7.511l-7.749-13.389l-13.021,7.5l8.267,14.285c-7.1,5.977-12.987,13.348-17.238,21.692H14
	c11.493,22.552,34.939,38,61.998,38s50.505-15.448,61.998-38h-0.031C133.648,69.331,127.641,61.864,120.393,55.839z M75.998,100.805
	c-18.373,0-34.623-9.083-44.502-23h0.023c9.873-13.917,26.115-23,44.479-23s34.605,9.083,44.479,23h0.023
	C110.621,91.723,94.371,100.805,75.998,100.805z M90.998,76.805c0,8.284-6.716,15-15,15s-15-6.716-15-15s6.716-15,15-15
	S90.998,68.521,90.998,76.805z"/>
</svg>
