<?xml version="1.0" encoding="utf-8"?>
<!-- Generator: Adobe Illustrator 16.0.4, SVG Export Plug-In . SVG Version: 6.00 Build 0)  -->
<!DOCTYPE svg PUBLIC "-//W3C//DTD SVG 1.1//EN" "http://www.w3.org/Graphics/SVG/1.1/DTD/svg11.dtd">
<svg version="1.1" id="Ebene_1" xmlns="http://www.w3.org/2000/svg" xmlns:xlink="http://www.w3.org/1999/xlink" x="0px" y="0px"
	 width="150px" height="150px" viewBox="0 0 150 150" enable-background="new 0 0 150 150" xml:space="preserve">
<path fill="#181716" d="M75.195,10.61c-34.932,0-63.25,28.318-63.25,63.25s28.318,63.25,63.25,63.25s63.25-28.318,63.25-63.25
	S110.126,10.61,75.195,10.61z M75.195,122.11c-26.647,0-48.25-21.603-48.25-48.25s21.603-48.25,48.25-48.25
	s48.25,21.603,48.25,48.25S101.842,122.11,75.195,122.11z M84.083,69.52l29.915,12.144c3.596,2.076,2.322,11.016,0.246,14.612
	c-2.077,3.596-9.182,9.17-12.778,7.093L76.233,83.72l-25.42,19.794c-3.595,2.075-10.697-3.496-12.772-7.091
	c-2.076-3.595-3.35-12.531,0.245-14.607l29.562-12L63.445,38.11c0-4.143,8.357-7.5,12.5-7.5s12.5,3.357,12.5,7.5L84.083,69.52z"/>
</svg>
