<?xml version="1.0" encoding="utf-8"?>
<!-- Generator: Adobe Illustrator 16.0.4, SVG Export Plug-In . SVG Version: 6.00 Build 0)  -->
<!DOCTYPE svg PUBLIC "-//W3C//DTD SVG 1.1//EN" "http://www.w3.org/Graphics/SVG/1.1/DTD/svg11.dtd">
<svg version="1.1" id="Ebene_1" xmlns="http://www.w3.org/2000/svg" xmlns:xlink="http://www.w3.org/1999/xlink" x="0px" y="0px"
	 width="150px" height="150px" viewBox="0 0 150 150" enable-background="new 0 0 150 150" xml:space="preserve">
<path fill="#181716" d="M92.445,137.61v-32.435h7L89.378,60.621c0-7.738-6.238-14.01-13.933-14.01s-13.933,6.272-13.933,14.01
	l-10.067,44.555h6v32.435h15v-32.435h5v32.435H92.445z M69.445,90.11l6-25.999l5.5,25.999H69.445z M115.665,31.615
	c3.594-2.071,8.189-0.842,10.264,2.745c2.075,3.587,0.843,8.174-2.75,10.245l-19.954,11.5c-3.594,2.071-8.189,0.842-10.264-2.745
	c-2.075-3.587-0.844-8.174,2.75-10.245L115.665,31.615z M24.49,34.11c2.071-3.587,6.658-4.816,10.245-2.745l19.919,11.5
	c3.587,2.071,4.816,6.658,2.745,10.245c-2.071,3.587-6.658,4.816-10.245,2.745l-19.919-11.5
	C23.648,42.285,22.419,37.698,24.49,34.11z M62.945,31.11c0-6.903,5.596-12.5,12.5-12.5s12.5,5.597,12.5,12.5
	c0,6.904-5.596,12.5-12.5,12.5S62.945,38.014,62.945,31.11z"/>
</svg>
