<?xml version="1.0" encoding="utf-8"?>
<!-- Generator: Adobe Illustrator 16.0.4, SVG Export Plug-In . SVG Version: 6.00 Build 0)  -->
<!DOCTYPE svg PUBLIC "-//W3C//DTD SVG 1.1//EN" "http://www.w3.org/Graphics/SVG/1.1/DTD/svg11.dtd">
<svg version="1.1" id="Ebene_1" xmlns="http://www.w3.org/2000/svg" xmlns:xlink="http://www.w3.org/1999/xlink" x="0px" y="0px"
	 width="150px" height="150px" viewBox="0 0 150 150" enable-background="new 0 0 150 150" xml:space="preserve">
<path fill="#181716" d="M17.562,28.333l0.12,27.167H3.108L3.003,26.494C3.441,13.919,14.088,4.076,26.785,4.51
	C32.719,4.713,38.049,7.124,42,10.919c3.951-3.795,9.281-6.206,15.215-6.409c12.697-0.434,23.344,9.409,23.782,21.984L80.892,55.5
	H66.319l0.12-27.167c-0.165-4.734-4.173-8.44-8.954-8.277c-4.78,0.164-8.521,4.134-8.356,8.868L49.116,30.5h-0.119H35.003h-0.119
	l-0.012-1.576c0.165-4.734-3.577-8.704-8.356-8.868C21.735,19.893,17.727,23.599,17.562,28.333z M34.5,99.5h15v-59h-15V99.5z
	 M97.5,101v45h15v-45H97.5z M120.215,65.01c-5.934,0.203-11.264,2.614-15.215,6.409c-3.951-3.795-9.281-6.206-15.215-6.409
	c-12.697-0.434-23.344,9.409-23.782,21.984L66.108,116h14.573l-0.12-27.167c0.165-4.734,4.173-8.44,8.954-8.277
	c4.78,0.164,8.521,4.134,8.356,8.868L97.884,91h0.119h13.994h0.119l0.012-1.576c-0.165-4.734,3.577-8.704,8.356-8.868
	c4.78-0.163,8.789,3.543,8.954,8.277L129.319,116h14.573l0.105-29.006C143.559,74.419,132.912,64.576,120.215,65.01z"/>
</svg>
