<?xml version="1.0" encoding="utf-8"?>
<!-- Generator: Adobe Illustrator 16.0.4, SVG Export Plug-In . SVG Version: 6.00 Build 0)  -->
<!DOCTYPE svg PUBLIC "-//W3C//DTD SVG 1.1//EN" "http://www.w3.org/Graphics/SVG/1.1/DTD/svg11.dtd">
<svg version="1.1" id="Ebene_1" xmlns="http://www.w3.org/2000/svg" xmlns:xlink="http://www.w3.org/1999/xlink" x="0px" y="0px"
	 width="150px" height="150px" viewBox="0 0 150 150" enable-background="new 0 0 150 150" xml:space="preserve">
<path fill="#181716" d="M24.945,134.61h104.5v-119h-104.5V134.61z M39.945,30.11h74.5v38h-12.5c0-4.143-3.357-7.5-7.5-7.5
	s-7.5,3.357-7.5,7.5h-20c0-4.143-3.357-7.5-7.5-7.5s-7.5,3.357-7.5,7.5h-12V30.11z M39.945,83.11h12v0.5c0,4.143,3.357,7.5,7.5,7.5
	s7.5-3.357,7.5-7.5v-0.5h20v0.5c0,4.143,3.357,7.5,7.5,7.5s7.5-3.357,7.5-7.5v-0.5h12.5v36.5h-74.5V83.11z"/>
</svg>
