<?xml version="1.0" encoding="utf-8"?>
<!-- Generator: Adobe Illustrator 16.0.4, SVG Export Plug-In . SVG Version: 6.00 Build 0)  -->
<!DOCTYPE svg PUBLIC "-//W3C//DTD SVG 1.1//EN" "http://www.w3.org/Graphics/SVG/1.1/DTD/svg11.dtd">
<svg version="1.1" id="Ebene_1" xmlns="http://www.w3.org/2000/svg" xmlns:xlink="http://www.w3.org/1999/xlink" x="0px" y="0px"
	 width="150px" height="150px" viewBox="0 0 150 150" enable-background="new 0 0 150 150" xml:space="preserve">
<path fill="#181716" d="M27.5,10h-15v15v95v15h15h95h15v-15V25V10h-15H27.5z M37.5,50v45v4.394l-10,10V36.106l10,10V50z M38.106,120
	l10-10H52.5h45h3.959l9.983,10H38.106z M52.5,95V50h45v45H52.5z M101.46,35H97.5h-45h-4.894l-10-10h73.836L101.46,35z M122.5,109.88
	l-10-10.017V95V50v-4.862l10-10.018V109.88z"/>
</svg>
