<?xml version="1.0" encoding="utf-8"?>
<!-- Generator: Adobe Illustrator 16.0.4, SVG Export Plug-In . SVG Version: 6.00 Build 0)  -->
<!DOCTYPE svg PUBLIC "-//W3C//DTD SVG 1.1//EN" "http://www.w3.org/Graphics/SVG/1.1/DTD/svg11.dtd">
<svg version="1.1" id="Ebene_1" xmlns="http://www.w3.org/2000/svg" xmlns:xlink="http://www.w3.org/1999/xlink" x="0px" y="0px"
	 width="150px" height="150px" viewBox="0 0 150 150" enable-background="new 0 0 150 150" xml:space="preserve">
<path fill="#181716" d="M133.009,49.62l-9.143,5.278l8.648,2.317l-3.857,14.396l-22.887-6.133l0.042-0.156l-16.344,9.437
	l16.49,9.521l-0.042-0.156l22.887-6.133l3.857,14.396l-8.648,2.317l8.899,5.138l-7.5,12.991l-8.999-5.195l2.413,8.757l-14.489,3.882
	l-6.403-23.234l0.087-0.023l-16.326-9.426v18.566l0.063-0.063l16.92,16.921l-10.607,10.606l-6.377-6.377v10.822h-15V127.51
	l-6.331,6.331l-10.538-10.538l16.755-16.755l0.114,0.115V87.906l-5.488,3.169l-11.01,6.356l0.156,0.042l-6.133,22.887l-14.395-3.857
	l2.317-8.648l-8.899,5.139l-7.5-12.99l8.999-5.195l-8.791-2.289l3.882-14.488l23.323,6.072l-0.023,0.086l13.886-8.017l2.447-1.413
	L43.28,65.413l0.023,0.087l-23.113,6.192l-3.882-14.488l8.711-2.334l-9.372-5.411l7.5-12.991l9.143,5.279l-2.317-8.648l14.395-3.857
	L50.5,52.129l-0.156,0.042l16.352,9.44V42.445l-0.114,0.114L49.826,25.805l10.538-10.538l6.331,6.331V11.321h15v10.391l6.377-6.469
	l10.607,10.607l-16.92,17.162l-0.063-0.063v18.977l16.18-9.342l-0.086-0.023l6.193-23.113l14.489,3.882l-2.334,8.712l9.373-5.411
	L133.009,49.62z"/>
</svg>
