<?xml version="1.0" encoding="utf-8"?>
<!-- Generator: Adobe Illustrator 16.0.4, SVG Export Plug-In . SVG Version: 6.00 Build 0)  -->
<!DOCTYPE svg PUBLIC "-//W3C//DTD SVG 1.1//EN" "http://www.w3.org/Graphics/SVG/1.1/DTD/svg11.dtd">
<svg version="1.1" id="Ebene_1" xmlns="http://www.w3.org/2000/svg" xmlns:xlink="http://www.w3.org/1999/xlink" x="0px" y="0px"
	 width="150px" height="150px" viewBox="0 0 150 150" enable-background="new 0 0 150 150" xml:space="preserve">
<path fill="#181716" d="M118.378,59.89l13.776-7.954l-8.372-14.501l-13.816,7.978c-1.542-1.799-3.214-3.482-5.012-5.024
	l7.974-13.812l-14.501-8.372l-7.949,13.77c-2.219-0.793-4.515-1.424-6.876-1.872V14.226H66.857v15.776
	c-2.395,0.424-4.721,1.042-6.972,1.82l-7.867-13.626l-14.501,8.372l7.803,13.515c-1.865,1.566-3.609,3.272-5.205,5.11l-13.457-7.77
	l-8.372,14.501l13.33,7.696c-0.837,2.299-1.502,4.682-1.967,7.135H14.313V83.5h15.235c0.441,2.488,1.091,4.902,1.914,7.235
	L18.29,98.341l8.372,14.501l13.158-7.597c1.621,1.904,3.389,3.679,5.295,5.298l-7.595,13.153l14.501,8.372l7.61-13.181
	c2.329,0.82,4.742,1.464,7.226,1.903v15.247h16.744v-15.346c2.449-0.465,4.826-1.133,7.122-1.969l7.7,13.337l14.501-8.372
	l-7.773-13.464c1.838-1.595,3.555-3.327,5.12-5.191l13.508,7.798l8.371-14.5l-13.608-7.857c0.778-2.251,1.39-4.58,1.814-6.974h15.77
	V66.756h-15.872C119.807,64.396,119.17,62.106,118.378,59.89z M74.952,106.174c-16.996,0-30.774-13.778-30.774-30.775
	c0-16.996,13.778-30.774,30.774-30.774c16.997,0,30.775,13.778,30.775,30.774C105.728,92.396,91.949,106.174,74.952,106.174z"/>
</svg>
