<?xml version="1.0" encoding="utf-8"?>
<!-- Generator: Adobe Illustrator 16.0.4, SVG Export Plug-In . SVG Version: 6.00 Build 0)  -->
<!DOCTYPE svg PUBLIC "-//W3C//DTD SVG 1.1//EN" "http://www.w3.org/Graphics/SVG/1.1/DTD/svg11.dtd">
<svg version="1.1" id="Ebene_1" xmlns="http://www.w3.org/2000/svg" xmlns:xlink="http://www.w3.org/1999/xlink" x="0px" y="0px"
	 width="150px" height="150px" viewBox="0 0 150 150" enable-background="new 0 0 150 150" xml:space="preserve">
<path fill="#181716" d="M74.695,11.11c-34.932,0-63.25,28.318-63.25,63.25s28.318,63.25,63.25,63.25s63.25-28.318,63.25-63.25
	S109.626,11.11,74.695,11.11z M27.768,85.61c-0.863-3.61-1.323-7.375-1.323-11.25c0-3.853,0.456-7.599,1.31-11.19l0.19,0.44h11.021
	c-0.343,3.494-0.521,7.085-0.521,10.75c0,3.841,0.201,7.598,0.577,11.25H27.768z M34.214,100.61h7.497
	c1.181,4.508,2.651,8.737,4.378,12.602C41.415,109.764,37.387,105.49,34.214,100.61z M41.577,48.61h-7.688
	c3.22-5.09,7.366-9.536,12.201-13.102C44.298,39.518,42.779,43.913,41.577,48.61z M67.445,120.215
	c-4.6-3.677-8.482-10.644-11.07-19.605h11.07V120.215z M67.445,85.61H53.516c-0.372-3.535-0.571-7.216-0.571-11
	s0.199-7.465,0.571-11h13.929V85.61z M67.445,48.61h-11.07c2.588-8.961,6.471-15.928,11.07-19.605V48.61z M115.501,48.61h-7.688
	c-1.202-4.697-2.722-9.093-4.513-13.102C108.135,39.075,112.282,43.521,115.501,48.61z M82.445,29.005
	c4.6,3.677,8.482,10.644,11.069,19.605H82.445V29.005z M82.445,120.215V100.61h11.069C90.927,109.571,87.044,116.538,82.445,120.215
	z M96.374,85.61H82.445v-22h13.929c0.372,3.535,0.571,7.216,0.571,11S96.746,82.076,96.374,85.61z M103.3,113.212
	c1.727-3.865,3.197-8.094,4.378-12.602h7.497C112.002,105.49,107.975,109.764,103.3,113.212z M122.945,74.36
	c0,3.875-0.46,7.64-1.323,11.25h-11.254c0.376-3.652,0.577-7.409,0.577-11.25c0-3.665-0.179-7.256-0.521-10.75h11.313
	C122.524,67.068,122.945,70.665,122.945,74.36z"/>
</svg>
