<?xml version="1.0" encoding="utf-8"?>
<!-- Generator: Adobe Illustrator 16.0.4, SVG Export Plug-In . SVG Version: 6.00 Build 0)  -->
<!DOCTYPE svg PUBLIC "-//W3C//DTD SVG 1.1//EN" "http://www.w3.org/Graphics/SVG/1.1/DTD/svg11.dtd">
<svg version="1.1" id="Ebene_1" xmlns="http://www.w3.org/2000/svg" xmlns:xlink="http://www.w3.org/1999/xlink" x="0px" y="0px"
	 width="150px" height="150px" viewBox="0 0 150 150" enable-background="new 0 0 150 150" xml:space="preserve">
<path fill="#181716" d="M54.5,11c-4.143,0-7.5,3.358-7.5,7.5V68v8v9.258L28.495,53.207c-2.071-3.587-6.658-4.816-10.245-2.745
	s-4.816,6.658-2.745,10.245l34.912,60.469C56.345,134.053,69.372,143,84.5,143c20.711,0,37.5-16.758,37.5-37.431V104V92.431V71v-3
	V28.5c0-4.142-3.357-7.5-7.5-7.5s-7.5,3.358-7.5,7.5V68h-5V18.5c0-4.142-3.357-7.5-7.5-7.5S87,14.358,87,18.5V68h-5V13.5
	C82,9.358,78.643,6,74.5,6S67,9.358,67,13.5V68h-5V18.5C62,14.358,58.643,11,54.5,11z M107,83v22.5c0,12.426-10.073,22.5-22.5,22.5
	c-7.708,0-14.508-3.878-18.562-9.787c-0.128-0.312-0.27-0.621-0.442-0.92l-1.636-2.833C62.666,111.713,62,108.685,62,105.5V83H107z"
	/>
</svg>
