<?xml version="1.0" encoding="utf-8"?>
<!-- Generator: Adobe Illustrator 16.0.4, SVG Export Plug-In . SVG Version: 6.00 Build 0)  -->
<!DOCTYPE svg PUBLIC "-//W3C//DTD SVG 1.1//EN" "http://www.w3.org/Graphics/SVG/1.1/DTD/svg11.dtd">
<svg version="1.1" id="Ebene_1" xmlns="http://www.w3.org/2000/svg" xmlns:xlink="http://www.w3.org/1999/xlink" x="0px" y="0px"
	 width="150px" height="150px" viewBox="0 0 150 150" enable-background="new 0 0 150 150" xml:space="preserve">
<path fill="#181716" d="M40.001,66.247c-12.575,0.436-22.418,11.051-21.984,23.709s10.979,22.566,23.555,22.129l68.434-0.064
	c12.576-0.437,22.419-11.052,21.985-23.709c-0.434-12.658-10.979-22.566-23.555-22.129l-10.026-0.061l0.088-14.603
	C98.06,38.944,87.411,29.101,74.715,29.534C62.018,29.968,52.08,40.514,52.518,53.089l-0.015,2.436h14.113l0.012-1.576
	c-0.164-4.734,3.577-8.705,8.357-8.868c4.779-0.163,8.788,3.542,8.953,8.276l-0.097,12.678L40.001,66.247z M107.576,80.25
	c4.734-0.164,8.704,3.566,8.867,8.331c0.164,4.766-3.542,8.762-8.276,8.926l-66.292-0.029c-4.734,0.164-8.705-3.566-8.868-8.331
	c-0.163-4.766,3.543-8.762,8.277-8.926L107.576,80.25z"/>
</svg>
