<?xml version="1.0" encoding="utf-8"?>
<!-- Generator: Adobe Illustrator 16.0.4, SVG Export Plug-In . SVG Version: 6.00 Build 0)  -->
<!DOCTYPE svg PUBLIC "-//W3C//DTD SVG 1.1//EN" "http://www.w3.org/Graphics/SVG/1.1/DTD/svg11.dtd">
<svg version="1.1" id="Ebene_1" xmlns="http://www.w3.org/2000/svg" xmlns:xlink="http://www.w3.org/1999/xlink" x="0px" y="0px"
	 width="150px" height="150px" viewBox="0 0 150 150" enable-background="new 0 0 150 150" xml:space="preserve">
<path fill="#181716" d="M18.945,114.61c0,8.284,6.716,15,15,15h15c8.284,0,15-6.716,15-15v-36c0-8.284-6.716-15-15-15H35.957
	c5.248-15.967,20.265-27.5,37.988-27.5s32.74,11.533,37.988,27.5H98.445c-8.284,0-15,6.716-15,15v36c0,8.284,6.716,15,15,15h15
	c8.284,0,15-6.716,15-15v-36c0-0.328-0.014-0.652-0.035-0.975c0.019-0.59,0.035-1.182,0.035-1.775
	c0-30.238-24.512-54.75-54.75-54.75s-54.75,24.512-54.75,54.75c0,0.588,0.018,1.173,0.036,1.757
	c-0.021,0.329-0.036,0.659-0.036,0.993V114.61z M113.445,78.61v36h-15v-36H113.445z M33.945,78.61h15v36h-15V78.61z"/>
</svg>
