<?xml version="1.0" encoding="utf-8"?>
<!-- Generator: Adobe Illustrator 16.0.4, SVG Export Plug-In . SVG Version: 6.00 Build 0)  -->
<!DOCTYPE svg PUBLIC "-//W3C//DTD SVG 1.1//EN" "http://www.w3.org/Graphics/SVG/1.1/DTD/svg11.dtd">
<svg version="1.1" id="Ebene_1" xmlns="http://www.w3.org/2000/svg" xmlns:xlink="http://www.w3.org/1999/xlink" x="0px" y="0px"
	 width="150px" height="150px" viewBox="0 0 150 150" enable-background="new 0 0 150 150" xml:space="preserve">
<path fill="#181716" d="M94.214,20.488c-6.96,0-13.692,1.978-19.476,5.522c-5.784-3.545-12.515-5.522-19.474-5.522
	c-20.551,0-37.271,16.718-37.271,37.269c0,9.817,3.786,19.084,10.66,26.091l0.046,0.046l0.046,0.047l35.624,35.669l10.37,10.384
	l10.371-10.384l35.621-35.667l0.046-0.046l0.046-0.046c6.875-7.01,10.662-16.276,10.662-26.094
	C131.485,37.206,114.766,20.488,94.214,20.488z M110.36,73.611l-35.621,35.667L39.116,73.609c-4.006-4.084-6.475-9.681-6.475-15.853
	c0-12.504,10.127-22.64,22.624-22.64c8.288,0,15.532,4.462,19.475,11.113c3.94-6.651,11.185-11.113,19.475-11.113
	c12.495,0,22.624,10.136,22.624,22.64C116.838,63.931,114.367,69.527,110.36,73.611z"/>
</svg>
