<?xml version="1.0" encoding="utf-8"?>
<!-- Generator: Adobe Illustrator 16.0.4, SVG Export Plug-In . SVG Version: 6.00 Build 0)  -->
<!DOCTYPE svg PUBLIC "-//W3C//DTD SVG 1.1//EN" "http://www.w3.org/Graphics/SVG/1.1/DTD/svg11.dtd">
<svg version="1.1" id="Ebene_1" xmlns="http://www.w3.org/2000/svg" xmlns:xlink="http://www.w3.org/1999/xlink" x="0px" y="0px"
	 width="150px" height="150px" viewBox="0 0 150 150" enable-background="new 0 0 150 150" xml:space="preserve">
<path fill="#181716" d="M116.831,48.209C110.011,34.287,95.761,25,79.64,25c-10.997,0-21.233,4.247-28.857,11.701
	c-22.086,0.876-39.784,19.172-39.784,41.537c0,22.92,18.591,41.567,41.442,41.567c3.632,0,7.22-0.476,10.685-1.402
	c5.41,3.282,11.68,5.097,18.118,5.097c7.96,0,15.49-2.668,21.546-7.43c0.576,0.028,1.154,0.043,1.733,0.043
	c19.287,0,34.978-15.737,34.978-35.081C139.5,66.087,130.052,53.231,116.831,48.209z M104.522,100.106
	c-2.567,0-5.016-0.516-7.252-1.441c-3.375,5.306-9.29,8.828-16.027,8.828c-6.222,0-11.746-3.001-15.213-7.64
	c-3.934,2.496-8.592,3.945-13.59,3.945c-14.067,0-25.472-11.444-25.472-25.561c0-14.119,11.404-25.563,25.472-25.563
	c1.869,0,3.689,0.208,5.445,0.591c4.474-7.351,12.541-12.259,21.754-12.259c12.499,0,22.888,9.038,25.051,20.957
	c10.42,0.09,18.838,8.592,18.838,19.068C123.528,91.566,115.02,100.106,104.522,100.106z"/>
</svg>
