<?xml version="1.0" encoding="utf-8"?>
<!-- Generator: Adobe Illustrator 16.0.4, SVG Export Plug-In . SVG Version: 6.00 Build 0)  -->
<!DOCTYPE svg PUBLIC "-//W3C//DTD SVG 1.1//EN" "http://www.w3.org/Graphics/SVG/1.1/DTD/svg11.dtd">
<svg version="1.1" id="Ebene_1" xmlns="http://www.w3.org/2000/svg" xmlns:xlink="http://www.w3.org/1999/xlink" x="0px" y="0px"
	 width="150px" height="150px" viewBox="0 0 150 150" enable-background="new 0 0 150 150" xml:space="preserve">
<path fill="#181716" d="M75.195,12.11c-34.932,0-63.25,28.318-63.25,63.25s28.318,63.25,63.25,63.25s63.25-28.318,63.25-63.25
	S110.126,12.11,75.195,12.11z M75.195,123.61c-26.647,0-48.25-21.603-48.25-48.25s21.603-48.25,48.25-48.25
	s48.25,21.603,48.25,48.25S101.842,123.61,75.195,123.61z M68.445,66.61h15v42.5h-15V66.61z M85.945,50.11c0,5.522-4.478,10-10,10
	s-10-4.478-10-10s4.478-10,10-10S85.945,44.588,85.945,50.11z"/>
</svg>
