<?xml version="1.0" encoding="utf-8"?>
<!-- Generator: Adobe Illustrator 16.0.4, SVG Export Plug-In . SVG Version: 6.00 Build 0)  -->
<!DOCTYPE svg PUBLIC "-//W3C//DTD SVG 1.1//EN" "http://www.w3.org/Graphics/SVG/1.1/DTD/svg11.dtd">
<svg version="1.1" id="Ebene_1" xmlns="http://www.w3.org/2000/svg" xmlns:xlink="http://www.w3.org/1999/xlink" x="0px" y="0px"
	 width="150px" height="150px" viewBox="0 0 150 150" enable-background="new 0 0 150 150" xml:space="preserve">
<path fill="#181716" d="M111.5,78.757v-8.764h-15v8.586L82,78.999V26H67.5v52.912l-27.499-0.165
	c-12.575,0.436-22.418,11.051-21.984,23.709s10.979,22.566,23.555,22.129l68.435-0.095c12.575-0.437,22.418-11.052,21.984-23.709
	C131.593,89.167,122.68,79.875,111.5,78.757z M108.167,109.976l-66.292,0.002c-4.734,0.164-8.705-3.566-8.868-8.331
	c-0.163-4.766,3.543-8.762,8.277-8.926l66.292-0.002c4.734-0.164,8.704,3.566,8.868,8.332
	C116.607,105.815,112.901,109.812,108.167,109.976z"/>
</svg>
