<?xml version="1.0" encoding="utf-8"?>
<!-- Generator: Adobe Illustrator 16.0.4, SVG Export Plug-In . SVG Version: 6.00 Build 0)  -->
<!DOCTYPE svg PUBLIC "-//W3C//DTD SVG 1.1//EN" "http://www.w3.org/Graphics/SVG/1.1/DTD/svg11.dtd">
<svg version="1.1" id="Ebene_1" xmlns="http://www.w3.org/2000/svg" xmlns:xlink="http://www.w3.org/1999/xlink" x="0px" y="0px"
	 width="150px" height="150px" viewBox="0 0 150 150" enable-background="new 0 0 150 150" xml:space="preserve">
<path fill="#181716" d="M93.484,46.194l11.643-20.164l-12.99-7.5l-7.312,12.664l-7.455-12.912l-12.99,7.5l11.785,20.412
	L64.717,66.021C61.57,65.034,58.223,64.5,54.75,64.5c-18.363,0-33.25,14.887-33.25,33.25S36.387,131,54.75,131S88,116.113,88,97.75
	c0-9.492-3.984-18.048-10.363-24.106l7.188-12.449l23.555,40.798c2.071,3.587,6.658,4.816,10.246,2.745
	c3.586-2.071,4.815-6.658,2.744-10.245L93.484,46.194z M54.75,116c-10.079,0-18.25-8.171-18.25-18.25S44.671,79.5,54.75,79.5
	c0.715,0,1.419,0.046,2.113,0.126L48.137,94.74c-2.072,3.587-0.843,8.174,2.744,10.245c3.588,2.071,8.175,0.842,10.246-2.745
	l8.605-14.906C71.79,90.288,73,93.877,73,97.75C73,107.829,64.829,116,54.75,116z"/>
</svg>
