<?xml version="1.0" encoding="utf-8"?>
<!-- Generator: Adobe Illustrator 16.0.4, SVG Export Plug-In . SVG Version: 6.00 Build 0)  -->
<!DOCTYPE svg PUBLIC "-//W3C//DTD SVG 1.1//EN" "http://www.w3.org/Graphics/SVG/1.1/DTD/svg11.dtd">
<svg version="1.1" id="Ebene_1" xmlns="http://www.w3.org/2000/svg" xmlns:xlink="http://www.w3.org/1999/xlink" x="0px" y="0px"
	 width="150px" height="150px" viewBox="0 0 150 150" enable-background="new 0 0 150 150" xml:space="preserve">
<path fill="#181716" d="M75.998,109.805c41.697,0,55.505-15.448,66.997-38h-0.03c-6.807-13.362-20.938-35.868-36.266-35.868
	s-23.711,7.868-30.701,7.868s-13.73-7.77-30.899-7.77S15.804,58.509,9.031,71.805h-0.03C20.493,94.357,34.3,109.805,75.998,109.805z
	 M75.998,94.805c-27.76,0-37.24-6.914-45.768-17.919c13.642,1.316,25.039,4.419,45.879,4.419c21.254,0,30.735-3.087,45.648-4.41
	C113.232,87.895,103.75,94.805,75.998,94.805z M51.696,51.01c10.927,0,14.053,7.795,24.302,7.795s11.211-7.413,25.052-7.413
	c10.986,0,16.76,8.404,21.184,15.408c-16.03,1.261-24.222,4.505-45.968,4.505c-22.121,0-28.795-3.481-46.063-4.633
	C35.52,59.514,43.022,51.01,51.696,51.01z"/>
</svg>
