<?xml version="1.0" encoding="utf-8"?>
<!-- Generator: Adobe Illustrator 16.0.4, SVG Export Plug-In . SVG Version: 6.00 Build 0)  -->
<!DOCTYPE svg PUBLIC "-//W3C//DTD SVG 1.1//EN" "http://www.w3.org/Graphics/SVG/1.1/DTD/svg11.dtd">
<svg version="1.1" id="Ebene_1" xmlns="http://www.w3.org/2000/svg" xmlns:xlink="http://www.w3.org/1999/xlink" x="0px" y="0px"
	 width="150px" height="150px" viewBox="0 0 150 150" enable-background="new 0 0 150 150" xml:space="preserve">
<path fill="#181716" d="M73.445,135.61c0,0,28.858-40.459,36.599-52.479c4.368-6.782,6.901-14.855,6.901-23.521
	c0-24.024-19.476-43.5-43.5-43.5s-43.5,19.476-43.5,43.5c0,9.244,2.883,17.814,7.8,24.861
	C45.606,95.739,73.445,135.61,73.445,135.61z M73.445,31.11c15.74,0,28.5,12.76,28.5,28.5s-12.76,28.5-28.5,28.5
	s-28.5-12.76-28.5-28.5S57.705,31.11,73.445,31.11z"/>
</svg>
