<?xml version="1.0" encoding="utf-8"?>
<!-- Generator: Adobe Illustrator 16.0.4, SVG Export Plug-In . SVG Version: 6.00 Build 0)  -->
<!DOCTYPE svg PUBLIC "-//W3C//DTD SVG 1.1//EN" "http://www.w3.org/Graphics/SVG/1.1/DTD/svg11.dtd">
<svg version="1.1" id="Ebene_1" xmlns="http://www.w3.org/2000/svg" xmlns:xlink="http://www.w3.org/1999/xlink" x="0px" y="0px"
	 width="150px" height="150px" viewBox="0 0 150 150" enable-background="new 0 0 150 150" xml:space="preserve">
<path fill="#181716" d="M40.98,116.005c7.238,0,14.07-2.802,19.237-7.891l0.034-0.034l0.034-0.034l1.542-1.546h27.844l1.542,1.546
	l0.034,0.034l0.034,0.034c5.167,5.088,11.999,7.891,19.237,7.891c15.151,0,27.478-12.376,27.478-27.588
	c0-5.151-1.458-10.133-4.071-14.414c2.613-4.281,4.071-9.264,4.071-14.416c0-15.212-12.326-27.588-27.478-27.588
	c-7.238,0-14.07,2.803-19.239,7.892l-0.034,0.035l-0.033,0.034l-1.537,1.54H61.823l-1.536-1.54l-0.034-0.034l-0.033-0.035
	c-5.169-5.089-12.001-7.892-19.239-7.892c-15.151,0-27.478,12.376-27.478,27.588c0,5.151,1.458,10.134,4.071,14.416
	c-2.613,4.281-4.071,9.263-4.071,14.414C13.503,103.629,25.829,116.005,40.98,116.005z M98,53.162l1.122-1.127
	c2.532-2.499,6.003-4.04,9.833-4.04c7.754,0,14.04,6.317,14.04,14.109c0,5.17-1.799,9.005-3.893,12.145
	c2.293,2.984,3.893,6.976,3.893,12.145c0,7.793-6.286,14.109-14.04,14.109c-3.828,0-7.299-1.54-9.832-4.039L98,95.336V53.162z
	 M68,56.5h15v35H68V56.5z M28.505,62.104c0-7.792,6.286-14.109,14.04-14.109c3.829,0,7.3,1.541,9.833,4.04L53,52.659v43.179
	l-0.623,0.626c-2.533,2.499-6.004,4.039-9.832,4.039c-7.754,0-14.04-6.316-14.04-14.109c0-5.168,1.6-9.161,3.893-12.145
	C30.304,71.109,28.505,67.274,28.505,62.104z"/>
</svg>
