<?xml version="1.0" encoding="utf-8"?>
<!-- Generator: Adobe Illustrator 16.0.4, SVG Export Plug-In . SVG Version: 6.00 Build 0)  -->
<!DOCTYPE svg PUBLIC "-//W3C//DTD SVG 1.1//EN" "http://www.w3.org/Graphics/SVG/1.1/DTD/svg11.dtd">
<svg version="1.1" id="Ebene_1" xmlns="http://www.w3.org/2000/svg" xmlns:xlink="http://www.w3.org/1999/xlink" x="0px" y="0px"
	 width="150px" height="150px" viewBox="0 0 150 150" enable-background="new 0 0 150 150" xml:space="preserve">
<path fill="#181716" d="M86.555,98.352c0,6.904-5.596,12.5-12.5,12.5c-6.903,0-12.5-5.596-12.5-12.5c0-6.903,5.597-12.5,12.5-12.5
	C80.958,85.852,86.555,91.448,86.555,98.352z M22.493,118.954h-0.045V33.96h14.997v0.022H37.5v-5.285C37.5,16.714,47.238,7,59.25,7
	S81,16.714,81,28.697v5.285h31.448V33.96h14.997v84.994H127.3v14.448H22.493V118.954z M81,54h31.448v-5.099H81V54z M51.5,33.982H67
	v-5.679c0-4.31-3.47-7.803-7.75-7.803s-7.75,3.494-7.75,7.803V33.982z M37.445,54H67v-5.099H37.445V54z M37.445,118.482h75.003V69
	H81v9.824H67v-1.627V69H37.445V118.482z"/>
</svg>
