<?xml version="1.0" encoding="utf-8"?>
<!-- Generator: Adobe Illustrator 16.0.4, SVG Export Plug-In . SVG Version: 6.00 Build 0)  -->
<!DOCTYPE svg PUBLIC "-//W3C//DTD SVG 1.1//EN" "http://www.w3.org/Graphics/SVG/1.1/DTD/svg11.dtd">
<svg version="1.1" id="Ebene_1" xmlns="http://www.w3.org/2000/svg" xmlns:xlink="http://www.w3.org/1999/xlink" x="0px" y="0px"
	 width="150px" height="150px" viewBox="0 0 150 150" enable-background="new 0 0 150 150" xml:space="preserve">
<path fill-rule="evenodd" clip-rule="evenodd" fill="#181716" d="M123.247,126.678c-8.787,8.786-23.033,8.786-31.819,0
	L59.354,94.604l10.607-10.605l32.072,32.072c2.929,2.93,7.678,2.93,10.606,0c2.929-2.929,2.929-7.678,0-10.606L80.567,73.391
	L90.829,63.13l-0.009-0.009l10.606-10.606l10.606,10.606l-10.261,10.261l21.475,21.475
	C132.034,103.645,132.034,117.891,123.247,126.678z M74.204,77.634c-13.277,13.278-34.806,13.278-48.084,0
	c-13.277-13.278-13.277-34.806,0-48.083c13.278-13.278,34.807-13.278,48.084,0S87.481,64.356,74.204,77.634z M63.598,40.157
	c-7.421-7.42-19.45-7.42-26.87,0c-7.42,7.42-7.42,19.45,0,26.87c7.42,7.42,19.449,7.42,26.87,0
	C71.018,59.607,71.018,47.577,63.598,40.157z"/>
</svg>
