<?xml version="1.0" encoding="utf-8"?>
<!-- Generator: Adobe Illustrator 16.0.4, SVG Export Plug-In . SVG Version: 6.00 Build 0)  -->
<!DOCTYPE svg PUBLIC "-//W3C//DTD SVG 1.1//EN" "http://www.w3.org/Graphics/SVG/1.1/DTD/svg11.dtd">
<svg version="1.1" id="Ebene_1" xmlns="http://www.w3.org/2000/svg" xmlns:xlink="http://www.w3.org/1999/xlink" x="0px" y="0px"
	 width="150px" height="150px" viewBox="0 0 150 150" enable-background="new 0 0 150 150" xml:space="preserve">
<path fill-rule="evenodd" clip-rule="evenodd" fill="#181716" d="M82.429,121.785v15.557h-15V121.85
	c-26.809-3.55-47.5-26.48-47.5-54.258c0-30.237,24.513-54.75,54.75-54.75s54.75,24.513,54.75,54.75
	C129.429,95.197,108.994,118.02,82.429,121.785z M74.679,107.342c8.939,0,17.189-2.952,23.829-7.934L84.325,84.957
	c-2.286,2.966-5.863,4.885-9.896,4.885c-3.768,0-7.137-1.674-9.429-4.311L51.154,99.629
	C57.742,104.475,65.874,107.342,74.679,107.342z M34.929,67.592c0,9.544,3.366,18.3,8.973,25.151l18.027-18.355V62.506
	L42.873,43.749C37.886,50.391,34.929,58.646,34.929,67.592z M74.679,27.842c-9.402,0-18.036,3.272-24.842,8.729l14.142,13.921
	c2.234-3.401,6.077-5.65,10.45-5.65c4.654,0,8.706,2.549,10.857,6.322l14.557-14.34C92.989,31.212,84.229,27.842,74.679,27.842z
	 M106.719,44.071l-19.79,19.495v9.785l18.752,19.106c5.469-6.81,8.748-15.452,8.748-24.866
	C114.429,58.789,111.562,50.658,106.719,44.071z"/>
</svg>
