<?xml version="1.0" encoding="utf-8"?>
<!-- Generator: Adobe Illustrator 16.0.4, SVG Export Plug-In . SVG Version: 6.00 Build 0)  -->
<!DOCTYPE svg PUBLIC "-//W3C//DTD SVG 1.1//EN" "http://www.w3.org/Graphics/SVG/1.1/DTD/svg11.dtd">
<svg version="1.1" id="Ebene_1" xmlns="http://www.w3.org/2000/svg" xmlns:xlink="http://www.w3.org/1999/xlink" x="0px" y="0px"
	 width="150px" height="150px" viewBox="0 0 150 150" enable-background="new 0 0 150 150" xml:space="preserve">
<path fill="#181716" d="M28.507,116c0-8.288,6.714-15.006,14.996-15.006c0.027,0,0.053,0.002,0.079,0.002V60.919V46.5V46
	l68.925-31.996v14.918l-0.006,0.003v67.027l-0.013,0.003c-0.244,8.07-6.857,14.539-14.985,14.539
	c-8.282,0-14.996-6.715-14.996-14.998s6.714-14.998,14.996-14.998c0.027,0,0.053,0.002,0.079,0.002V35.852L58.5,53.994v62.46
	l-0.013,0.003c-0.242,8.076-6.855,14.55-14.985,14.55C35.221,131.007,28.507,124.288,28.507,116z"/>
</svg>
