<?xml version="1.0" encoding="utf-8"?>
<!-- Generator: Adobe Illustrator 16.0.4, SVG Export Plug-In . SVG Version: 6.00 Build 0)  -->
<!DOCTYPE svg PUBLIC "-//W3C//DTD SVG 1.1//EN" "http://www.w3.org/Graphics/SVG/1.1/DTD/svg11.dtd">
<svg version="1.1" id="Ebene_1" xmlns="http://www.w3.org/2000/svg" xmlns:xlink="http://www.w3.org/1999/xlink" x="0px" y="0px"
	 width="150px" height="150px" viewBox="0 0 150 150" enable-background="new 0 0 150 150" xml:space="preserve">
<path fill-rule="evenodd" clip-rule="evenodd" fill="#181716" d="M21,137.25V12.75h108v124.5H21z M114,27.25H36v95h78V27.25z
	 M71,37.25v0.013c0.167-0.003,0.332-0.013,0.5-0.013c15.188,0,27.5,12.312,27.5,27.5s-12.312,27.5-27.5,27.5
	c-0.168,0-0.333-0.01-0.5-0.013v0.013h-5v20H51v-75h15H71z M66,77.25h5v-0.025c0.167,0.007,0.331,0.025,0.5,0.025
	c6.903,0,12.5-5.597,12.5-12.5s-5.597-12.5-12.5-12.5c-0.169,0-0.333,0.019-0.5,0.025V52.25h-5V77.25z"/>
</svg>
