<?xml version="1.0" encoding="utf-8"?>
<!-- Generator: Adobe Illustrator 16.0.4, SVG Export Plug-In . SVG Version: 6.00 Build 0)  -->
<!DOCTYPE svg PUBLIC "-//W3C//DTD SVG 1.1//EN" "http://www.w3.org/Graphics/SVG/1.1/DTD/svg11.dtd">
<svg version="1.1" id="Ebene_1" xmlns="http://www.w3.org/2000/svg" xmlns:xlink="http://www.w3.org/1999/xlink" x="0px" y="0px"
	 width="150px" height="150px" viewBox="0 0 150 150" enable-background="new 0 0 150 150" xml:space="preserve">
<path fill="#181716" d="M96,13H53c-8.284,0-15,6.716-15,15v92c0,8.284,6.716,15,15,15h43c8.284,0,15-6.716,15-15V28
	C111,19.716,104.284,13,96,13z M96,120H53V28h43V120z M65.5,104.25c0-4.832,3.917-8.75,8.75-8.75S83,99.418,83,104.25
	S79.083,113,74.25,113S65.5,109.082,65.5,104.25z"/>
</svg>
