<?xml version="1.0" encoding="utf-8"?>
<!-- Generator: Adobe Illustrator 16.0.4, SVG Export Plug-In . SVG Version: 6.00 Build 0)  -->
<!DOCTYPE svg PUBLIC "-//W3C//DTD SVG 1.1//EN" "http://www.w3.org/Graphics/SVG/1.1/DTD/svg11.dtd">
<svg version="1.1" id="Ebene_1" xmlns="http://www.w3.org/2000/svg" xmlns:xlink="http://www.w3.org/1999/xlink" x="0px" y="0px"
	 width="150px" height="150px" viewBox="0 0 150 150" enable-background="new 0 0 150 150" xml:space="preserve">
<path fill-rule="evenodd" clip-rule="evenodd" fill="#181716" d="M98.843,118.5c-5.914,6.16-14.226,10-23.439,10
	s-17.525-3.84-23.439-10H21.403V44h107v74.5H98.843z M75.403,113.5c9.665,0,17.5-7.835,17.5-17.5s-7.835-17.5-17.5-17.5
	s-17.5,7.835-17.5,17.5S65.738,113.5,75.403,113.5z M113.403,59h-77v44.5h7.38c-0.569-2.409-0.88-4.917-0.88-7.5
	c0-17.949,14.551-32.5,32.5-32.5s32.5,14.551,32.5,32.5c0,2.583-0.311,5.091-0.88,7.5h6.38V59z M49.403,24h52v15h-52V24z"/>
</svg>
