<?xml version="1.0" encoding="utf-8"?>
<!-- Generator: Adobe Illustrator 16.0.4, SVG Export Plug-In . SVG Version: 6.00 Build 0)  -->
<!DOCTYPE svg PUBLIC "-//W3C//DTD SVG 1.1//EN" "http://www.w3.org/Graphics/SVG/1.1/DTD/svg11.dtd">
<svg version="1.1" id="Ebene_1" xmlns="http://www.w3.org/2000/svg" xmlns:xlink="http://www.w3.org/1999/xlink" x="0px" y="0px"
	 width="150px" height="150px" viewBox="0 0 150 150" enable-background="new 0 0 150 150" xml:space="preserve">
<path fill="#181716" d="M72.617,117.805c28.066,0,56.881,10,56.881,10s-10-26.011-10-52.678c0-28.048,10-56.822,10-56.822
	s-27.303,10-54.641,10c-27.411,0-54.859-10-54.859-10s10,28.533,10,56.469c0,26.79-10,53.031-10,53.031
	S45.971,117.805,72.617,117.805z M39.998,38.305c0,0,17.296,4.801,34.568,4.801c17.228,0,34.432-4.801,34.432-4.801
	s-4.801,18.132-4.801,35.806c0,16.804,4.801,33.194,4.801,33.194s-18.157-4.801-35.843-4.801c-16.791,0-33.157,4.801-33.157,4.801
	s4.801-16.535,4.801-33.417C44.799,56.285,39.998,38.305,39.998,38.305z"/>
</svg>
