<?xml version="1.0" encoding="utf-8"?>
<!-- Generator: Adobe Illustrator 16.0.4, SVG Export Plug-In . SVG Version: 6.00 Build 0)  -->
<!DOCTYPE svg PUBLIC "-//W3C//DTD SVG 1.1//EN" "http://www.w3.org/Graphics/SVG/1.1/DTD/svg11.dtd">
<svg version="1.1" id="Ebene_1" xmlns="http://www.w3.org/2000/svg" xmlns:xlink="http://www.w3.org/1999/xlink" x="0px" y="0px"
	 width="150px" height="150px" viewBox="0 0 150 150" enable-background="new 0 0 150 150" xml:space="preserve">
<path fill="#181716" d="M90.997,71.305c0,8.289-6.714,15.008-14.996,15.008s-14.996-6.719-14.996-15.008
	c0-8.287,6.714-15.006,14.996-15.006S90.997,63.018,90.997,71.305z M75.991,6.295c-35.898,0-65,29.102-65,65.002
	c0,26.072,15.352,48.555,37.507,58.912v-17.162c-13.555-8.943-22.506-24.295-22.506-41.748c0-27.615,22.387-50.002,50.001-50.002
	s50.001,22.387,50.001,50.002c0,17.451-8.945,32.805-22.496,41.746v17.158c22.148-10.361,37.494-32.84,37.494-58.906
	C140.992,35.396,111.891,6.295,75.991,6.295z M103.297,100.531c7.811-7.297,12.697-17.682,12.697-29.215
	c0-22.094-17.905-40.002-39.992-40.002S36.01,49.223,36.01,71.316c0,11.531,4.881,21.922,12.688,29.223
	c0.678-5.725,3.11-10.91,6.751-15.002c-2.81-4.041-4.46-8.945-4.46-14.24c0-13.809,11.194-25.002,25.003-25.002
	c13.81,0,25.004,11.193,25.004,25.002c0,5.291-1.646,10.197-4.453,14.236C100.184,89.623,102.618,94.807,103.297,100.531z
	 M75.998,91.305c-8.008,0-14.5,6.492-14.5,14.5v22c0,8.008,6.492,14.5,14.5,14.5s14.5-6.492,14.5-14.5v-22
	C90.498,97.797,84.006,91.305,75.998,91.305z"/>
</svg>
