<?xml version="1.0" encoding="utf-8"?>
<!-- Generator: Adobe Illustrator 16.0.4, SVG Export Plug-In . SVG Version: 6.00 Build 0)  -->
<!DOCTYPE svg PUBLIC "-//W3C//DTD SVG 1.1//EN" "http://www.w3.org/Graphics/SVG/1.1/DTD/svg11.dtd">
<svg version="1.1" id="Ebene_1" xmlns="http://www.w3.org/2000/svg" xmlns:xlink="http://www.w3.org/1999/xlink" x="0px" y="0px"
	 width="150px" height="150px" viewBox="0 0 150 150" enable-background="new 0 0 150 150" xml:space="preserve">
<path fill="#181716" d="M94.5,70.033C99.535,74.371,106.083,77,113.25,77c0.744,0,1.48-0.035,2.211-0.091
	c-0.187,5.359-1.426,10.448-3.521,15.071c-6.229-0.185-12.129-1.673-17.44-4.199C88.817,90.483,82.463,92,75.75,92
	S62.683,90.483,57,87.781c-5.454,2.594-11.529,4.091-17.944,4.207c-2.102-4.636-3.344-9.74-3.525-15.117
	C36.426,76.956,37.333,77,38.25,77c7.167,0,13.715-2.629,18.75-6.967C62.035,74.371,68.583,77,75.75,77S89.465,74.371,94.5,70.033z
	 M75.5,97.533c-5.035,4.338-11.583,6.967-18.75,6.967c-3.86,0-7.538-0.769-10.899-2.15c7.227,7.973,17.626,13.01,29.206,13.135
	c0.147-0.068,0.297-0.134,0.443-0.203c0.146,0.069,0.296,0.135,0.443,0.203c11.574-0.127,21.969-5.162,29.194-13.13
	c-3.358,1.379-7.032,2.146-10.888,2.146C87.083,104.5,80.535,101.871,75.5,97.533z M94.25,49.5c-7.167,0-13.715-2.629-18.75-6.967
	C70.465,46.871,63.917,49.5,56.75,49.5c-3.52,0-6.888-0.637-10.002-1.796c-3.536,3.656-6.38,7.981-8.323,12.771
	C43.998,63.055,50.203,64.5,56.75,64.5c6.713,0,13.067-1.517,18.75-4.219c5.683,2.702,12.037,4.219,18.75,4.219
	c6.544,0,12.746-1.444,18.319-4.021c-1.943-4.79-4.787-9.116-8.323-12.772C101.133,48.863,97.767,49.5,94.25,49.5z M140.494,75.499
	c0,35.896-29.102,64.994-65.001,64.994c-35.898,0-65-29.099-65-64.994c0-35.895,29.102-64.993,65-64.993
	C111.393,10.506,140.494,39.604,140.494,75.499z M125.496,75.499c0-27.611-22.387-49.995-50.001-49.995S25.494,47.888,25.494,75.499
	c0,27.612,22.387,49.995,50.001,49.995S125.496,103.111,125.496,75.499z"/>
</svg>
