<?xml version="1.0" encoding="utf-8"?>
<!-- Generator: Adobe Illustrator 16.0.4, SVG Export Plug-In . SVG Version: 6.00 Build 0)  -->
<!DOCTYPE svg PUBLIC "-//W3C//DTD SVG 1.1//EN" "http://www.w3.org/Graphics/SVG/1.1/DTD/svg11.dtd">
<svg version="1.1" id="Ebene_1" xmlns="http://www.w3.org/2000/svg" xmlns:xlink="http://www.w3.org/1999/xlink" x="0px" y="0px"
	 width="150px" height="150px" viewBox="0 0 150 150" enable-background="new 0 0 150 150" xml:space="preserve">
<path fill="#181716" d="M29,45.5h35.013C64.011,45.416,64,45.334,64,45.25C64,39.037,69.037,34,75.25,34S86.5,39.037,86.5,45.25
	c0,0.084-0.011,0.166-0.013,0.25H121.5v15H29V45.5z M29,80.5H14v-15h15h15h62h15h15v15h-15V100c0,8.284-6.716,15-15,15H44
	c-8.284,0-15-6.716-15-15V80.5z M44,100h62V80.5H44V100z"/>
</svg>
