<?xml version="1.0" encoding="utf-8"?>
<!-- Generator: Adobe Illustrator 16.0.4, SVG Export Plug-In . SVG Version: 6.00 Build 0)  -->
<!DOCTYPE svg PUBLIC "-//W3C//DTD SVG 1.1//EN" "http://www.w3.org/Graphics/SVG/1.1/DTD/svg11.dtd">
<svg version="1.1" id="Ebene_1" xmlns="http://www.w3.org/2000/svg" xmlns:xlink="http://www.w3.org/1999/xlink" x="0px" y="0px"
	 width="150px" height="150px" viewBox="0 0 150 150" enable-background="new 0 0 150 150" xml:space="preserve">
<path fill="#181716" d="M67.497,72.555c0,4.835-3.917,8.754-8.747,8.754c-4.832,0-8.748-3.919-8.748-8.754
	c0-4.834,3.916-8.753,8.748-8.753C63.58,63.802,67.497,67.721,67.497,72.555z M131.998,72.305c0,30.928-25.072,56-56,56
	s-56-25.072-56-56s25.072-56,56-56S131.998,41.377,131.998,72.305z M116.998,72.305c0-19.905-14.188-36.492-33-40.214v9.214h-15
	v-9.393c-19.307,3.323-34,20.137-34,40.393s14.693,37.069,34,40.393v-9.393h15v9.214C102.811,108.797,116.998,92.21,116.998,72.305z
	 M93.25,63.802c-4.832,0-8.748,3.919-8.748,8.753c0,4.835,3.916,8.754,8.748,8.754c4.83,0,8.747-3.919,8.747-8.754
	C101.997,67.721,98.08,63.802,93.25,63.802z"/>
</svg>
