<?xml version="1.0" encoding="utf-8"?>
<!-- Generator: Adobe Illustrator 16.0.4, SVG Export Plug-In . SVG Version: 6.00 Build 0)  -->
<!DOCTYPE svg PUBLIC "-//W3C//DTD SVG 1.1//EN" "http://www.w3.org/Graphics/SVG/1.1/DTD/svg11.dtd">
<svg version="1.1" id="Ebene_1" xmlns="http://www.w3.org/2000/svg" xmlns:xlink="http://www.w3.org/1999/xlink" x="0px" y="0px"
	 width="150px" height="150px" viewBox="0 0 150 150" enable-background="new 0 0 150 150" xml:space="preserve">
<path fill="#181716" d="M75.195,12.11c-34.932,0-63.25,28.318-63.25,63.25s28.318,63.25,63.25,63.25s63.25-28.318,63.25-63.25
	S110.126,12.11,75.195,12.11z M75.195,123.61c-26.647,0-48.25-21.603-48.25-48.25s21.603-48.25,48.25-48.25
	s48.25,21.603,48.25,48.25S101.842,123.61,75.195,123.61z M85.945,99.11c0,5.522-4.478,10-10,10s-10-4.478-10-10s4.478-10,10-10
	S85.945,93.588,85.945,99.11z M97.445,59.86c0,11.652-9.38,21.109-21,21.244v0.006h-8v-1.812V66.11h8v-0.013
	c3.335-0.132,6-2.87,6-6.237s-2.665-6.105-6-6.237V53.61H59.936h-0.991v-15h17.5v0.006C88.065,38.751,97.445,48.208,97.445,59.86z"
	/>
</svg>
