<?xml version="1.0" encoding="utf-8"?>
<!-- Generator: Adobe Illustrator 16.0.4, SVG Export Plug-In . SVG Version: 6.00 Build 0)  -->
<!DOCTYPE svg PUBLIC "-//W3C//DTD SVG 1.1//EN" "http://www.w3.org/Graphics/SVG/1.1/DTD/svg11.dtd">
<svg version="1.1" id="Ebene_1" xmlns="http://www.w3.org/2000/svg" xmlns:xlink="http://www.w3.org/1999/xlink" x="0px" y="0px"
	 width="150px" height="150px" viewBox="0 0 150 150" enable-background="new 0 0 150 150" xml:space="preserve">
<path fill="#181716" d="M47,31c0,6.904-5.597,12.5-12.5,12.5S22,37.904,22,31c0-6.903,5.597-12.5,12.5-12.5S47,24.097,47,31z
	 M67,139.5h15v-127H67V139.5z M114.5,43.5c6.903,0,12.5-5.596,12.5-12.5c0-6.903-5.597-12.5-12.5-12.5S102,24.097,102,31
	C102,37.904,107.597,43.5,114.5,43.5z M128.434,60.51l10.066,44.555h-7V132.5h-15v-27.435h-5V132.5h-15v-27.435h-6l10.066-44.555
	c0-7.738,6.238-14.01,13.934-14.01S128.434,52.772,128.434,60.51z M120,90l-5.5-25.999L108.5,90H120z M16.5,93.526
	c-2.825-3.75-4.5-8.41-4.5-13.461V68.935C12,56.544,22.073,46.5,34.5,46.5S57,56.544,57,68.935v11.131
	c0,5.619-2.076,10.751-5.5,14.687V132.5h-15v-30.093c-0.659,0.058-1.325,0.093-2,0.093c-1.018,0-2.018-0.074-3-0.205V132.5h-15
	V93.526z M27,80c0,4.142,3.357,7.5,7.5,7.5S42,84.142,42,80V69c0-4.142-3.357-7.5-7.5-7.5S27,64.858,27,69V80z"/>
</svg>
