<?xml version="1.0" encoding="utf-8"?>
<!-- Generator: Adobe Illustrator 16.0.4, SVG Export Plug-In . SVG Version: 6.00 Build 0)  -->
<!DOCTYPE svg PUBLIC "-//W3C//DTD SVG 1.1//EN" "http://www.w3.org/Graphics/SVG/1.1/DTD/svg11.dtd">
<svg version="1.1" id="Ebene_1" xmlns="http://www.w3.org/2000/svg" xmlns:xlink="http://www.w3.org/1999/xlink" x="0px" y="0px"
	 width="150px" height="150px" viewBox="0 0 150 150" enable-background="new 0 0 150 150" xml:space="preserve">
<path fill="#181716" d="M32.667,111.354c10.164,5.863,23.16,2.384,29.028-7.771l14.61-23.025l7.682,7.675
	c8.299,8.292,21.753,8.292,30.052,0c8.298-8.292,8.298-21.734,0-30.026L87.524,31.713c-8.299-8.292-21.753-8.292-30.052,0
	c-1.717,1.716-3.074,3.655-4.08,5.721L24.89,82.352C19.021,92.506,22.504,105.492,32.667,111.354z M67.901,41.781
	c3.125-3.122,8.19-3.122,11.314,0l24.749,24.727c3.125,3.122,3.125,8.183,0,11.304c-3.124,3.121-8.189,3.121-11.313,0L67.901,53.085
	C64.777,49.963,64.777,44.902,67.901,41.781z M37.206,88.014l18.24-28.619c0.61,0.817,1.283,1.603,2.026,2.344l9.427,9.419
	L51.062,96.007c-2.209,3.823-7.102,5.133-10.928,2.925C36.308,96.726,34.997,91.837,37.206,88.014z M67.299,133.995H15.493v-14.906
	h51.806V133.995z M122.75,87.634c6.213,0,11.25,5.033,11.25,11.24c0,6.208-5.037,11.24-11.25,11.24s-11.25-5.032-11.25-11.24
	C111.5,92.667,116.537,87.634,122.75,87.634z"/>
</svg>
