<?xml version="1.0" encoding="utf-8"?>
<!-- Generator: Adobe Illustrator 16.0.4, SVG Export Plug-In . SVG Version: 6.00 Build 0)  -->
<!DOCTYPE svg PUBLIC "-//W3C//DTD SVG 1.1//EN" "http://www.w3.org/Graphics/SVG/1.1/DTD/svg11.dtd">
<svg version="1.1" id="Ebene_1" xmlns="http://www.w3.org/2000/svg" xmlns:xlink="http://www.w3.org/1999/xlink" x="0px" y="0px"
	 width="150px" height="150px" viewBox="0 0 150 150" enable-background="new 0 0 150 150" xml:space="preserve">
<path fill="#181716" d="M78.945,34.11c-6.903,0-12.5-5.596-12.5-12.5c0-6.903,5.597-12.5,12.5-12.5s12.5,5.597,12.5,12.5
	C91.445,28.514,85.848,34.11,78.945,34.11z M48.043,105.928l10.452-10.451c-4.339-4.09-7.051-9.878-7.051-16.301v-7.874
	l-8.068,8.068c-2.929,2.929-7.678,2.929-10.606,0s-2.929-7.678,0-10.606L54.034,47.5c0.03-0.03,0.063-0.056,0.094-0.085
	c3.8-7.028,11.249-11.805,19.817-11.805c11.543,0,21.051,8.669,22.345,19.833l16.376-10.828c3.594-2.071,8.188-0.842,10.264,2.745
	c2.074,3.587,0.843,8.174-2.751,10.245L96.445,73.299v5.877c0,4.483-1.324,8.656-3.596,12.16l16.777,16.777l-0.014,0.014
	l7.762,28.967l-14.489,3.882l-6.731-25.122l-15.319-15.319c-2.172,0.696-4.485,1.076-6.89,1.076c-0.121,0-0.24-0.007-0.361-0.009
	l-21.102,21.103l-0.078-0.078l-28.918-7.749l3.883-14.489L48.043,105.928z M66.445,79.11c0,4.142,3.357,7.5,7.5,7.5
	s7.5-3.358,7.5-7.5v-21c0-4.142-3.357-7.5-7.5-7.5s-7.5,3.358-7.5,7.5V79.11z"/>
</svg>
