<?xml version="1.0" encoding="utf-8"?>
<!-- Generator: Adobe Illustrator 16.0.4, SVG Export Plug-In . SVG Version: 6.00 Build 0)  -->
<!DOCTYPE svg PUBLIC "-//W3C//DTD SVG 1.1//EN" "http://www.w3.org/Graphics/SVG/1.1/DTD/svg11.dtd">
<svg version="1.1" id="Ebene_1" xmlns="http://www.w3.org/2000/svg" xmlns:xlink="http://www.w3.org/1999/xlink" x="0px" y="0px"
	 width="150px" height="150px" viewBox="0 0 150 150" enable-background="new 0 0 150 150" xml:space="preserve">
<path fill-rule="evenodd" clip-rule="evenodd" fill="#181716" d="M114.255-0.25L84.899,29.105l0.105,0.106l-0.053,0.034
	L82.896,39.83l-7.895-7.896L32.573,74.36l7.923,7.922l-10.644,2.062l-0.035,0.054l-0.105-0.105L0.39,113.615l35.355,35.355
	l29.27-29.27l0.053-0.052l-0.053-0.052l1.988-10.808l7.998,7.998l42.426-42.426l-7.971-7.971l10.748-1.98l0.051,0.052l0.053-0.052
	l29.303-29.303L114.255-0.25z M35.735,127.768l-14.143-14.143l8.129-8.128l14.143,14.142L35.735,127.768z M50.015,104.597
	l-5.25-5.251l8.781-3.53L50.015,104.597z M75.001,95.574L53.788,74.36l21.213-21.213L96.214,74.36L75.001,95.574z M96.417,52.944
	l3.535-8.787l5.252,5.251L96.417,52.944z M120.255,43.248l-14.143-14.142l8.143-8.142l14.143,14.142L120.255,43.248z"/>
</svg>
