<?xml version="1.0" encoding="utf-8"?>
<!-- Generator: Adobe Illustrator 16.0.4, SVG Export Plug-In . SVG Version: 6.00 Build 0)  -->
<!DOCTYPE svg PUBLIC "-//W3C//DTD SVG 1.1//EN" "http://www.w3.org/Graphics/SVG/1.1/DTD/svg11.dtd">
<svg version="1.1" id="Ebene_1" xmlns="http://www.w3.org/2000/svg" xmlns:xlink="http://www.w3.org/1999/xlink" x="0px" y="0px"
	 width="150px" height="150px" viewBox="0 0 150 150" enable-background="new 0 0 150 150" xml:space="preserve">
<path fill="#181716" d="M38,73.736V87h15V73.914l19.948,0.004l0.025,18.085H22.722V132h108.741v-25.476V92.003V52.086
	c0.031-0.641,0.043-1.287,0.021-1.94c-0.433-12.658-10.979-22.566-23.554-22.129l-68.435-0.014
	c-12.575,0.437-22.418,11.052-21.985,23.71C17.908,63.326,26.82,72.618,38,73.736z M117.002,117.084H38.071v-10.135h78.931V117.084z
	 M41.333,42.517l66.292,0.106c4.734-0.164,8.705,3.566,8.868,8.331c0.012,0.333-0.001,0.659-0.027,0.982v40.088H87.47l0.048-32.252
	l-45.594,0.002c-4.734,0.164-8.705-3.566-8.868-8.331C32.893,46.678,36.599,42.682,41.333,42.517z"/>
</svg>
