<?xml version="1.0" encoding="utf-8"?>
<!-- Generator: Adobe Illustrator 16.0.4, SVG Export Plug-In . SVG Version: 6.00 Build 0)  -->
<!DOCTYPE svg PUBLIC "-//W3C//DTD SVG 1.1//EN" "http://www.w3.org/Graphics/SVG/1.1/DTD/svg11.dtd">
<svg version="1.1" id="Ebene_1" xmlns="http://www.w3.org/2000/svg" xmlns:xlink="http://www.w3.org/1999/xlink" x="0px" y="0px"
	 width="150px" height="150px" viewBox="0 0 150 150" enable-background="new 0 0 150 150" xml:space="preserve">
<path fill="#181716" d="M96.445,127.11v-8.5c0-4.143,3.358-7.5,7.5-7.5s7.5,3.357,7.5,7.5v8.5c0,4.143-3.358,7.5-7.5,7.5
	S96.445,131.253,96.445,127.11z M96.445,93.61c0-4.143-3.358-7.5-7.5-7.5s-7.5,3.357-7.5,7.5v8.5c0,4.143,3.358,7.5,7.5,7.5
	s7.5-3.357,7.5-7.5V93.61z M66.445,93.61c0-4.143-3.358-7.5-7.5-7.5s-7.5,3.357-7.5,7.5v8.5c0,4.143,3.358,7.5,7.5,7.5
	s7.5-3.357,7.5-7.5V93.61z M73.945,134.61c4.142,0,7.5-3.357,7.5-7.5v-8.5c0-4.143-3.358-7.5-7.5-7.5s-7.5,3.357-7.5,7.5v8.5
	C66.445,131.253,69.803,134.61,73.945,134.61z M36.445,118.61v8.5c0,4.143,3.358,7.5,7.5,7.5s7.5-3.357,7.5-7.5v-8.5
	c0-4.143-3.358-7.5-7.5-7.5S36.445,114.468,36.445,118.61z M111.73,78.61H36.001H22.956c-0.005-0.281-0.011-0.562-0.011-0.845
	c0-25.419,18.667-46.461,43-50.096V12.11h15v15.56c24.333,3.635,43,24.677,43,50.096c0,0.283-0.006,0.563-0.011,0.845H111.73z
	 M107.938,65.104c-4.817-14.247-18.212-24.5-33.995-24.5s-29.178,10.253-33.995,24.5H107.938z"/>
</svg>
