<?xml version="1.0" encoding="utf-8"?>
<!-- Generator: Adobe Illustrator 16.0.4, SVG Export Plug-In . SVG Version: 6.00 Build 0)  -->
<!DOCTYPE svg PUBLIC "-//W3C//DTD SVG 1.1//EN" "http://www.w3.org/Graphics/SVG/1.1/DTD/svg11.dtd">
<svg version="1.1" id="Ebene_1" xmlns="http://www.w3.org/2000/svg" xmlns:xlink="http://www.w3.org/1999/xlink" x="0px" y="0px"
	 width="150px" height="150px" viewBox="0 0 150 150" enable-background="new 0 0 150 150" xml:space="preserve">
<path fill="#181716" d="M67.445,75.61h15v15h-15V75.61z M102.445,75.61h-15v15h15V75.61z M122.197,48.858l0.248,0.252v86.5h-95v-121
	h61l26.75,27.145l7.053,7.052L122.197,48.858z M107.445,55.217L82.338,30.11H42.445v90.5h65V55.217z M102.445,95.61h-15v15h15V95.61
	z M67.445,110.61h15v-15h-15V110.61z M47.445,110.61h15v-15h-15V110.61z M47.445,90.61h15v-15h-15V90.61z"/>
</svg>
