<?xml version="1.0" encoding="utf-8"?>
<!-- Generator: Adobe Illustrator 16.0.4, SVG Export Plug-In . SVG Version: 6.00 Build 0)  -->
<!DOCTYPE svg PUBLIC "-//W3C//DTD SVG 1.1//EN" "http://www.w3.org/Graphics/SVG/1.1/DTD/svg11.dtd">
<svg version="1.1" id="Ebene_1" xmlns="http://www.w3.org/2000/svg" xmlns:xlink="http://www.w3.org/1999/xlink" x="0px" y="0px"
	 width="150px" height="150px" viewBox="0 0 150 150" enable-background="new 0 0 150 150" xml:space="preserve">
<path fill="#181716" d="M81.445,127.11v-23.5h15h15h10h5v-75h-5h-10h-15h-15h-15h-15h-15h-15v75h15h15h15v23.5H81.445z
	 M96.445,43.61h15v15h-15V43.61z M96.445,73.61h15v15h-15V73.61z M51.445,88.61h-15v-15h15V88.61z M51.445,58.61h-15v-15h15V58.61z
	 M66.445,43.61h15v15h-15V43.61z M66.445,73.61h15v15h-15V73.61z"/>
</svg>
