<?xml version="1.0" encoding="utf-8"?>
<!-- Generator: Adobe Illustrator 16.0.4, SVG Export Plug-In . SVG Version: 6.00 Build 0)  -->
<!DOCTYPE svg PUBLIC "-//W3C//DTD SVG 1.1//EN" "http://www.w3.org/Graphics/SVG/1.1/DTD/svg11.dtd">
<svg version="1.1" id="Ebene_1" xmlns="http://www.w3.org/2000/svg" xmlns:xlink="http://www.w3.org/1999/xlink" x="0px" y="0px"
	 width="150px" height="150px" viewBox="0 0 150 150" enable-background="new 0 0 150 150" xml:space="preserve">
<path fill="#181716" d="M17.73,132.832l10.575-0.031L61.54,99.567l17.678,17.678l10.606-10.607l-7.071-7.071l44.548-44.548
	c8.787-8.787,8.787-23.033,0-31.82s-23.033-8.787-31.82,0L50.934,67.747l-7.071-7.071L33.256,71.283L50.934,88.96l-33.234,33.234
	L17.73,132.832z M106.441,33.452c2.929-2.929,7.678-2.929,10.606,0c2.929,2.929,2.929,7.678,0,10.607L72.146,88.96l-5.304-5.303
	l-5.303-5.303L106.441,33.452z"/>
</svg>
