<?xml version="1.0" encoding="utf-8"?>
<!-- Generator: Adobe Illustrator 16.0.4, SVG Export Plug-In . SVG Version: 6.00 Build 0)  -->
<!DOCTYPE svg PUBLIC "-//W3C//DTD SVG 1.1//EN" "http://www.w3.org/Graphics/SVG/1.1/DTD/svg11.dtd">
<svg version="1.1" id="Ebene_1" xmlns="http://www.w3.org/2000/svg" xmlns:xlink="http://www.w3.org/1999/xlink" x="0px" y="0px"
	 width="150px" height="150px" viewBox="0 0 150 150" enable-background="new 0 0 150 150" xml:space="preserve">
<path fill="#181716" d="M93.416,135.803l0.082-0.082v0.084h15V88.812c0.001,0,0.002,0,0.003,0c8.282,0,14.995-6.719,14.995-15.006
	s-6.713-15.006-14.995-15.006c-0.001,0-0.002,0-0.003,0V10.805H93.576l-0.186-0.185L55.706,48.305H28.998v2v13v20v11v4h26.921
	L93.416,135.803z M43.998,63.305h18v-0.079l31.5-31.5v82.995L62.075,83.298l-0.077,0.077v-0.07h-18V63.305z"/>
</svg>
