<?xml version="1.0" encoding="utf-8"?>
<!-- Generator: Adobe Illustrator 16.0.4, SVG Export Plug-In . SVG Version: 6.00 Build 0)  -->
<!DOCTYPE svg PUBLIC "-//W3C//DTD SVG 1.1//EN" "http://www.w3.org/Graphics/SVG/1.1/DTD/svg11.dtd">
<svg version="1.1" id="Ebene_1" xmlns="http://www.w3.org/2000/svg" xmlns:xlink="http://www.w3.org/1999/xlink" x="0px" y="0px"
	 width="150px" height="150px" viewBox="0 0 150 150" enable-background="new 0 0 150 150" xml:space="preserve">
<path fill="#181716" d="M117.656,8.148l-0.195-0.338L82.998,27.695v-5.391c0-4.143-3.357-7.5-7.5-7.5s-7.5,3.357-7.5,7.5v4.824
	L34.535,7.811L34.34,8.148l-0.161-0.16C21.41,20.631,13.498,38.168,13.498,57.555c0,19.26,7.807,36.697,20.428,49.32l0.097-0.098
	l0.013,0.023l33.963-19.609v44.113c0,4.143,3.357,7.5,7.5,7.5s7.5-3.357,7.5-7.5v-44.74l34.963,20.174l0.013-0.023l0.097,0.098
	c12.621-12.615,20.428-30.041,20.428-49.289c0-19.375-7.912-36.9-20.681-49.535L117.656,8.148z M67.998,69.871L37.35,87.566
	c-5.59-8.559-8.852-18.775-8.852-29.762c0-11.385,3.498-21.951,9.469-30.693l30.031,17.34V69.871z M114.646,87.516l-31.648-18.26
	V45.004L114.029,27.1c5.971,8.736,9.469,19.295,9.469,30.674C123.498,68.752,120.236,78.963,114.646,87.516z"/>
</svg>
