<?xml version="1.0" encoding="utf-8"?>
<!-- Generator: Adobe Illustrator 16.0.4, SVG Export Plug-In . SVG Version: 6.00 Build 0)  -->
<!DOCTYPE svg PUBLIC "-//W3C//DTD SVG 1.1//EN" "http://www.w3.org/Graphics/SVG/1.1/DTD/svg11.dtd">
<svg version="1.1" id="Ebene_1" xmlns="http://www.w3.org/2000/svg" xmlns:xlink="http://www.w3.org/1999/xlink" x="0px" y="0px"
	 width="150px" height="150px" viewBox="0 0 150 150" enable-background="new 0 0 150 150" xml:space="preserve">
<path fill="#181716" d="M35.498,42.805h-5v15h5v20v2v47h79v-47v-2v-20h5v-15h-5v-25h-15v25H87.976
	c-2.594-4.482-7.427-7.506-12.975-7.506c-5.549,0-10.382,3.023-12.976,7.506H50.498v-25h-15V42.805z M50.498,57.805h11.527
	c2.594,4.484,7.427,7.508,12.976,7.508s10.382-3.023,12.976-7.508h11.521v20h-49V57.805z M50.498,92.805h49v19h-49V92.805z"/>
</svg>
