<?xml version="1.0" encoding="utf-8"?>
<!-- Generator: Adobe Illustrator 16.0.4, SVG Export Plug-In . SVG Version: 6.00 Build 0)  -->
<!DOCTYPE svg PUBLIC "-//W3C//DTD SVG 1.1//EN" "http://www.w3.org/Graphics/SVG/1.1/DTD/svg11.dtd">
<svg version="1.1" id="Ebene_1" xmlns="http://www.w3.org/2000/svg" xmlns:xlink="http://www.w3.org/1999/xlink" x="0px" y="0px"
	 width="150px" height="150px" viewBox="0 0 150 150" enable-background="new 0 0 150 150" xml:space="preserve">
<path fill="#181716" d="M15.445,128.11h119V23.61h-119V128.11z M119.945,38.61V64.5c-0.016-0.016-0.032-0.03-0.047-0.046
	c-7.506-7.506-12.772-16.395-15.834-25.844H119.945z M30.445,38.61h15.288c-2.979,9.273-8.071,18.004-15.288,25.43V38.61z
	 M30.445,83.752c3.564-2.558,6.972-5.434,10.169-8.653C51.017,64.626,57.928,51.978,61.386,38.61h26.963
	c3.473,13.315,10.408,25.914,20.841,36.349c3.375,3.374,6.977,6.382,10.755,9.027v0.124h-89.5V83.752z M30.445,99.11h89.5v14h-89.5
	V99.11z"/>
</svg>
