<?xml version="1.0" encoding="utf-8"?>
<!-- Generator: Adobe Illustrator 16.0.4, SVG Export Plug-In . SVG Version: 6.00 Build 0)  -->
<!DOCTYPE svg PUBLIC "-//W3C//DTD SVG 1.1//EN" "http://www.w3.org/Graphics/SVG/1.1/DTD/svg11.dtd">
<svg version="1.1" id="Ebene_1" xmlns="http://www.w3.org/2000/svg" xmlns:xlink="http://www.w3.org/1999/xlink" x="0px" y="0px"
	 width="150px" height="150px" viewBox="0 0 150 150" enable-background="new 0 0 150 150" xml:space="preserve">
<path fill="#181716" d="M36.445,126.61h15v-15h15v15h15v-15h15v15h15v-15h15v-15h-15v-15h15v-15h-15v-15h15v-15h-15v-15h-15v15h-15
	v-15h-15v15h-15v-15h-15v15h-15v15h15v15h-15v15h15v15h-15v15h15V126.61z M81.445,51.61h15v15h-15V51.61z M81.445,81.61h15v15h-15
	V81.61z M51.445,51.61h15v15h-15V51.61z M51.445,81.61h15v15h-15V81.61z"/>
</svg>
