<?xml version="1.0" encoding="utf-8"?>
<!-- Generator: Adobe Illustrator 16.0.4, SVG Export Plug-In . SVG Version: 6.00 Build 0)  -->
<!DOCTYPE svg PUBLIC "-//W3C//DTD SVG 1.1//EN" "http://www.w3.org/Graphics/SVG/1.1/DTD/svg11.dtd">
<svg version="1.1" id="Ebene_1" xmlns="http://www.w3.org/2000/svg" xmlns:xlink="http://www.w3.org/1999/xlink" x="0px" y="0px"
	 width="150px" height="150px" viewBox="0 0 150 150" enable-background="new 0 0 150 150" xml:space="preserve">
<path fill="#181716" d="M47.629,58.236l-18.38-18.38c3.055-3.984,6.622-7.552,10.606-10.607l18.38,18.38
	C53.911,50.268,50.268,53.912,47.629,58.236z M101.676,57.931l18.075-18.076c-3.055-3.984-6.622-7.552-10.606-10.607L90.949,47.444
	C95.307,50.035,98.988,53.639,101.676,57.931z M119.751,109.145l-17.88-17.88c-2.639,4.325-6.282,7.968-10.606,10.607l17.88,17.88
	C113.129,116.696,116.696,113.129,119.751,109.145z M82,43.841V18.007c-2.456-0.323-4.956-0.507-7.5-0.507s-5.044,0.184-7.5,0.507
	v25.95C69.48,43.334,72.076,43,74.75,43C77.246,43,79.67,43.297,82,43.841z M106.5,74.75c0,2.496-0.297,4.92-0.842,7.25h25.335
	c0.323-2.456,0.507-4.956,0.507-7.5s-0.184-5.044-0.507-7.5h-25.45C106.166,69.481,106.5,72.076,106.5,74.75z M67,130.993
	c2.456,0.323,4.956,0.507,7.5,0.507s5.044-0.184,7.5-0.507v-25.334c-2.33,0.544-4.754,0.841-7.25,0.841
	c-2.674,0-5.27-0.334-7.75-0.957V130.993z M92,74.5C92,64.835,84.165,57,74.5,57S57,64.835,57,74.5S64.835,92,74.5,92
	S92,84.165,92,74.5z M39.855,119.751l18.075-18.076c-4.292-2.688-7.896-6.369-10.486-10.727l-18.195,18.195
	C32.304,113.129,35.871,116.696,39.855,119.751z M43,74.75c0-2.674,0.334-5.269,0.957-7.75h-25.95
	c-0.323,2.456-0.507,4.956-0.507,7.5s0.184,5.044,0.507,7.5h25.835C43.297,79.67,43,77.246,43,74.75z"/>
</svg>
