<?xml version="1.0" encoding="utf-8"?>
<!-- Generator: Adobe Illustrator 16.0.4, SVG Export Plug-In . SVG Version: 6.00 Build 0)  -->
<!DOCTYPE svg PUBLIC "-//W3C//DTD SVG 1.1//EN" "http://www.w3.org/Graphics/SVG/1.1/DTD/svg11.dtd">
<svg version="1.1" id="Ebene_1" xmlns="http://www.w3.org/2000/svg" xmlns:xlink="http://www.w3.org/1999/xlink" x="0px" y="0px"
	 width="150px" height="150px" viewBox="0 0 150 150" enable-background="new 0 0 150 150" xml:space="preserve">
<path fill="#181716" d="M97.445,134.11v-32.435h7L94.379,57.121c0-7.738-6.238-14.01-13.934-14.01s-13.934,6.272-13.934,14.01
	l-0.902,3.99H55.309l6.096-6.085c2.934-2.931,2.938-7.68,0.004-10.607c-2.932-2.928-7.689-2.926-10.625,0.004L34.486,60.695
	c-0.135,0.133-0.254,0.274-0.377,0.415H22.445v73h55v-32.435h5v32.435H97.445z M62.445,119.11h-25v-43h25V119.11z M77.445,86.61v-13
	l3-12.999l5.5,25.999H77.445z M67.945,27.61c0-6.903,5.596-12.5,12.5-12.5c6.902,0,12.5,5.597,12.5,12.5
	c0,6.904-5.598,12.5-12.5,12.5C73.541,40.11,67.945,34.514,67.945,27.61z M130.93,30.86c2.074,3.587,0.842,8.174-2.752,10.245
	l-19.953,11.5c-3.594,2.071-8.189,0.842-10.264-2.745c-2.074-3.587-0.844-8.174,2.75-10.245l19.955-11.5
	C124.26,26.044,128.854,27.273,130.93,30.86z"/>
</svg>
