<?xml version="1.0" encoding="utf-8"?>
<!-- Generator: Adobe Illustrator 16.0.4, SVG Export Plug-In . SVG Version: 6.00 Build 0)  -->
<!DOCTYPE svg PUBLIC "-//W3C//DTD SVG 1.1//EN" "http://www.w3.org/Graphics/SVG/1.1/DTD/svg11.dtd">
<svg version="1.1" id="Ebene_1" xmlns="http://www.w3.org/2000/svg" xmlns:xlink="http://www.w3.org/1999/xlink" x="0px" y="0px"
	 width="150px" height="150px" viewBox="0 0 150 150" enable-background="new 0 0 150 150" xml:space="preserve">
<path fill="#181716" d="M85.744,87.75c0,2.692-1.046,5.135-2.744,6.964V104c0,4.143-3.357,7.5-7.5,7.5S68,108.143,68,104v-9.273
	c-1.705-1.83-2.756-4.278-2.756-6.977c0-5.661,4.589-10.25,10.25-10.25S85.744,82.089,85.744,87.75z M88.96,54.913
	c-4.69,0-8.492,3.807-8.492,8.502c0,1.478,0.378,2.866,1.04,4.077h14.903c0.663-1.211,1.04-2.6,1.04-4.077
	C97.451,58.72,93.649,54.913,88.96,54.913z M138.049,40.8c0,8.971-5.067,16.752-12.489,20.646c0.446,2.705,0.688,5.478,0.688,8.309
	c0,16.136-7.54,30.502-19.278,39.798c-2.745,14.766-15.674,25.948-31.22,25.948c-15.385,0-28.214-10.95-31.139-25.49
	c-12.072-9.277-19.86-23.854-19.86-40.256c0-2.839,0.244-5.619,0.692-8.331C18.046,57.521,13,49.752,13,40.8
	c0-12.868,10.42-23.3,23.274-23.3c6.452,0,12.29,2.63,16.506,6.876c6.837-3.431,14.549-5.373,22.719-5.373
	c8.184,0,15.908,1.949,22.753,5.39c4.217-4.256,10.062-6.893,16.522-6.893C127.628,17.5,138.049,27.932,138.049,40.8z
	 M111.253,69.745c0-19.745-16.005-35.752-35.747-35.752c-19.743,0-35.748,16.007-35.748,35.752c0,13.761,7.778,25.698,19.173,31.675
	c-0.106,0.763-0.165,1.54-0.165,2.332c0,9.25,7.499,16.748,16.75,16.748s16.75-7.498,16.75-16.748c0-0.795-0.059-1.576-0.166-2.342
	C103.483,95.431,111.253,83.498,111.253,69.745z M70.549,63.415c0-4.695-3.803-8.502-8.492-8.502c-4.69,0-8.492,3.807-8.492,8.502
	c0,1.478,0.378,2.866,1.04,4.077h14.903C70.171,66.281,70.549,64.893,70.549,63.415z"/>
</svg>
