<?xml version="1.0" encoding="utf-8"?>
<!-- Generator: Adobe Illustrator 16.0.4, SVG Export Plug-In . SVG Version: 6.00 Build 0)  -->
<!DOCTYPE svg PUBLIC "-//W3C//DTD SVG 1.1//EN" "http://www.w3.org/Graphics/SVG/1.1/DTD/svg11.dtd">
<svg version="1.1" id="Ebene_1" xmlns="http://www.w3.org/2000/svg" xmlns:xlink="http://www.w3.org/1999/xlink" x="0px" y="0px"
	 width="150px" height="150px" viewBox="0 0 150 150" enable-background="new 0 0 150 150" xml:space="preserve">
<path fill="#181716" d="M61.945,74.61c0-4.383,2.176-8.252,5.5-10.606V34.11h15v29.894c3.324,2.354,5.5,6.223,5.5,10.606
	c0,0.796-0.083,1.572-0.22,2.329l16.577,16.923l-10.715,10.496L77.005,87.432c-0.673,0.107-1.357,0.179-2.061,0.179
	C67.765,87.61,61.945,81.79,61.945,74.61z M11.445,74.36c0-34.932,28.318-63.25,63.25-63.25s63.25,28.318,63.25,63.25
	s-28.318,63.25-63.25,63.25S11.445,109.292,11.445,74.36z M26.445,74.36c0,26.647,21.603,48.25,48.25,48.25
	s48.25-21.603,48.25-48.25s-21.603-48.25-48.25-48.25S26.445,47.713,26.445,74.36z"/>
</svg>
