<?xml version="1.0" encoding="utf-8"?>
<!-- Generator: Adobe Illustrator 16.0.4, SVG Export Plug-In . SVG Version: 6.00 Build 0)  -->
<!DOCTYPE svg PUBLIC "-//W3C//DTD SVG 1.1//EN" "http://www.w3.org/Graphics/SVG/1.1/DTD/svg11.dtd">
<svg version="1.1" id="Ebene_1" xmlns="http://www.w3.org/2000/svg" xmlns:xlink="http://www.w3.org/1999/xlink" x="0px" y="0px"
	 width="150px" height="150px" viewBox="0 0 150 150" enable-background="new 0 0 150 150" xml:space="preserve">
<path fill="#181716" d="M44.429,85.391l9.546-9.546l5.007-5.006l8.787,8.787L53.903,93.49c-8.363-3.994-18.681-2.532-25.608,4.395
	c-6.926,6.927-8.388,17.245-4.394,25.607l14.294-14.294l10.606,10.607l-14.294,14.294c8.363,3.994,18.681,2.532,25.607-4.395
	s8.389-17.245,4.395-25.607l13.865-13.866l40.954,40.955l10.606-10.607L88.981,79.625l14.115-14.115
	c8.363,3.994,18.682,2.532,25.608-4.395c6.926-6.927,8.388-17.245,4.394-25.607l-14.294,14.294l-10.606-10.607l14.294-14.294
	c-8.363-3.994-18.681-2.532-25.607,4.395S88.496,46.54,92.49,54.903L78.375,69.019l-8.787-8.787l5.954-5.953
	c8.786-8.787,8.786-23.033,0-31.82c-8.787-8.787-23.033-8.787-31.82,0L22.155,44.025l-9.546,9.546l-1.061,1.061l31.819,31.82
	L44.429,85.391z M54.328,33.065c2.93-2.929,7.678-2.929,10.606,0c2.93,2.929,2.93,7.678,0,10.607L43.368,65.238L32.762,54.632
	L54.328,33.065z"/>
</svg>
