<?xml version="1.0" encoding="utf-8"?>
<!-- Generator: Adobe Illustrator 16.0.4, SVG Export Plug-In . SVG Version: 6.00 Build 0)  -->
<!DOCTYPE svg PUBLIC "-//W3C//DTD SVG 1.1//EN" "http://www.w3.org/Graphics/SVG/1.1/DTD/svg11.dtd">
<svg version="1.1" id="Ebene_1" xmlns="http://www.w3.org/2000/svg" xmlns:xlink="http://www.w3.org/1999/xlink" x="0px" y="0px"
	 width="150px" height="150px" viewBox="0 0 150 150" enable-background="new 0 0 150 150" xml:space="preserve">
<path fill="#181716" d="M112,40H36.5V25h26.013c0.134-6.097,5.108-11,11.237-11s11.104,4.903,11.237,11H112V40z M111.5,45H127v15
	h-15.5v54.5c0,8.284-6.716,15-15,15h-45c-8.284,0-15-6.716-15-15V60h-15V45h15H111.5z M66.5,60h-15v47c0,4.143,3.357,7.5,7.5,7.5
	s7.5-3.357,7.5-7.5V60z M96.5,60h-15v47c0,4.143,3.357,7.5,7.5,7.5s7.5-3.357,7.5-7.5V60z"/>
</svg>
