<?xml version="1.0" encoding="utf-8"?>
<!-- Generator: Adobe Illustrator 16.0.4, SVG Export Plug-In . SVG Version: 6.00 Build 0)  -->
<!DOCTYPE svg PUBLIC "-//W3C//DTD SVG 1.1//EN" "http://www.w3.org/Graphics/SVG/1.1/DTD/svg11.dtd">
<svg version="1.1" id="Ebene_1" xmlns="http://www.w3.org/2000/svg" xmlns:xlink="http://www.w3.org/1999/xlink" x="0px" y="0px"
	 width="150px" height="150px" viewBox="0 0 150 150" enable-background="new 0 0 150 150" xml:space="preserve">
<path fill="#181716" d="M93.945,23.11c0,0-9.392,8.5-19.017,8.5c-10.113,0-20.483-8.5-20.483-8.5h-15h-29v45.5h29v60h69v-60h29.5
	v-45.5h-29.5H93.945z M112.445,38.61h11v15h-11h-3.5h-15v15v45h-39.5v-45v-15h-14.5h-7.5h-7v-15h7h7.5h14.5
	c0,0,10.312,7.5,20.399,7.5c9.654,0,19.101-7.5,19.101-7.5h15H112.445z"/>
</svg>
