<?xml version="1.0" encoding="utf-8"?>
<!-- Generator: Adobe Illustrator 16.0.4, SVG Export Plug-In . SVG Version: 6.00 Build 0)  -->
<!DOCTYPE svg PUBLIC "-//W3C//DTD SVG 1.1//EN" "http://www.w3.org/Graphics/SVG/1.1/DTD/svg11.dtd">
<svg version="1.1" id="Ebene_1" xmlns="http://www.w3.org/2000/svg" xmlns:xlink="http://www.w3.org/1999/xlink" x="0px" y="0px"
	 width="150px" height="150px" viewBox="0 0 150 150" enable-background="new 0 0 150 150" xml:space="preserve">
<path fill="#181716" d="M82,28.56V13H67v15.56c-24.333,3.635-43,24.677-43,50.096c0,0.283,0.006,0.563,0.011,0.845h13.046h30.052
	l-0.105,34.006c0.438,12.575,11.085,22.418,23.782,21.984s22.635-10.979,22.197-23.555l0.015-2.436H98.884l-0.013,1.576
	c0.165,4.734-3.576,8.704-8.356,8.868c-4.779,0.163-8.788-3.543-8.953-8.277l0.12-32.167h31.104h12.204
	c0.005-0.281,0.011-0.562,0.011-0.845C125,53.236,106.333,32.194,82,28.56z M41.004,65.993c4.817-14.247,18.212-24.5,33.995-24.5
	s29.178,10.253,33.994,24.5H41.004z"/>
</svg>
