<?xml version="1.0" encoding="utf-8"?>
<!-- Generator: Adobe Illustrator 16.0.4, SVG Export Plug-In . SVG Version: 6.00 Build 0)  -->
<!DOCTYPE svg PUBLIC "-//W3C//DTD SVG 1.1//EN" "http://www.w3.org/Graphics/SVG/1.1/DTD/svg11.dtd">
<svg version="1.1" id="Ebene_1" xmlns="http://www.w3.org/2000/svg" xmlns:xlink="http://www.w3.org/1999/xlink" x="0px" y="0px"
	 width="150px" height="150px" viewBox="0 0 150 150" enable-background="new 0 0 150 150" xml:space="preserve">
<path fill="#181716" d="M124.939,128.452c1.793-0.477,3.316-1.301,4.52-2.503c9.482-9.483-4.217-38.84-30.371-66.717l15.639-15.638
	c2.928-2.929,2.928-7.678,0-10.607c-2.93-2.929-7.678-2.929-10.607,0L88.461,48.645C60.799,22.893,31.846,9.209,22.445,18.61
	c-0.359,0.358-0.584,0.581-0.967,1.166c-14.574,29.885-9.617,66.853,15.211,91.683C60.549,135.318,95.711,140.978,124.939,128.452z
	 M88.504,69.816c20.656,21.587,33.812,41.139,29.936,45.018c-3.879,3.879-23.432-9.277-45.02-29.936L88.504,69.816z M32.879,29.274
	c3.879-3.879,23.432,9.277,45.018,29.935L62.814,74.292C42.156,52.706,29,33.153,32.879,29.274z M28.404,53.095
	c6.691,11.76,16.828,24.949,29.4,37.521c12.533,12.533,25.617,22.647,37.275,29.334c-17.203,0.457-34.553-5.867-47.684-18.997
	C34.223,87.779,27.898,70.356,28.404,53.095z"/>
</svg>
