<?xml version="1.0" encoding="utf-8"?>
<!-- Generator: Adobe Illustrator 16.0.4, SVG Export Plug-In . SVG Version: 6.00 Build 0)  -->
<!DOCTYPE svg PUBLIC "-//W3C//DTD SVG 1.1//EN" "http://www.w3.org/Graphics/SVG/1.1/DTD/svg11.dtd">
<svg version="1.1" id="Ebene_1" xmlns="http://www.w3.org/2000/svg" xmlns:xlink="http://www.w3.org/1999/xlink" x="0px" y="0px"
	 width="150px" height="150px" viewBox="0 0 150 150" enable-background="new 0 0 150 150" xml:space="preserve">
<path fill="#181716" d="M97.5,26c-8.164,0-15.832,2.11-22.5,5.805C68.332,28.11,60.664,26,52.5,26C26.818,26,6,46.818,6,72.5
	S26.818,119,52.5,119c8.164,0,15.832-2.11,22.5-5.805C81.668,116.89,89.336,119,97.5,119c25.682,0,46.5-20.818,46.5-46.5
	S123.182,26,97.5,26z M33.088,97.298c-1.282-1.005-2.483-2.109-3.596-3.298h5.512L33.088,97.298z M23.171,84
	c-0.269-0.682-0.516-1.373-0.736-2.077L33.496,75.5H43.5h2.245L40.81,84H23.171z M70.5,98.342c-5.103,3.563-11.305,5.658-18,5.658
	c-3.714,0-7.275-0.647-10.584-1.828L46.661,94H70.5V98.342z M70.5,84H52.467l4.936-8.5H70.5V84z M97.5,104
	c-6.265,0-12.096-1.838-17-4.992V94h23.374l4.651,8.012C105.094,103.295,101.38,104,97.5,104z M80.5,84v-8.5h12.632l4.936,8.5H80.5z
	 M117.278,97.01L115.531,94h4.978C119.503,95.076,118.426,96.083,117.278,97.01z M126.828,84h-17.104l-4.936-8.5H115.5h1.552
	l10.593,6.154C127.403,82.45,127.129,83.232,126.828,84z M122,65.5h-2.334h-2.545H115.5h-72H33.237h-2.362H28.5h-6.705
	C24.979,51.474,37.511,41,52.5,41c8.816,0,16.782,3.626,22.5,9.463C80.718,44.626,88.684,41,97.5,41
	c14.99,0,27.525,10.474,30.71,24.5H122z"/>
</svg>
