<?xml version="1.0" encoding="utf-8"?>
<!-- Generator: Adobe Illustrator 16.0.4, SVG Export Plug-In . SVG Version: 6.00 Build 0)  -->
<!DOCTYPE svg PUBLIC "-//W3C//DTD SVG 1.1//EN" "http://www.w3.org/Graphics/SVG/1.1/DTD/svg11.dtd">
<svg version="1.1" id="Ebene_1" xmlns="http://www.w3.org/2000/svg" xmlns:xlink="http://www.w3.org/1999/xlink" x="0px" y="0px"
	 width="150px" height="150px" viewBox="0 0 150 150" enable-background="new 0 0 150 150" xml:space="preserve">
<path fill="#181716" d="M130.5,41.781C124.817,44.483,118.463,46,111.75,46S98.683,44.483,93,41.781
	C87.317,44.483,80.963,46,74.25,46s-13.067-1.517-18.75-4.219C49.817,44.483,43.462,46,36.75,46S23.683,44.483,18,41.781V24.033
	C23.035,28.371,29.583,31,36.75,31s13.715-2.629,18.75-6.967C60.535,28.371,67.083,31,74.25,31S87.965,28.371,93,24.033
	C98.035,28.371,104.583,31,111.75,31s13.715-2.629,18.75-6.967V41.781z M130.5,79.033C125.465,83.371,118.917,86,111.75,86
	S98.035,83.371,93,79.033C87.965,83.371,81.417,86,74.25,86s-13.715-2.629-18.75-6.967C50.465,83.371,43.917,86,36.75,86
	S23.035,83.371,18,79.033v17.748C23.683,99.483,30.038,101,36.75,101s13.067-1.517,18.75-4.219C61.183,99.483,67.537,101,74.25,101
	S87.317,99.483,93,96.781c5.683,2.702,12.037,4.219,18.75,4.219s13.067-1.517,18.75-4.219V79.033z M130.5,113.494
	c-7.068-0.061-13.524-2.674-18.5-6.961c-5.035,4.338-11.583,6.967-18.75,6.967s-13.715-2.629-18.75-6.967
	c-5.035,4.338-11.583,6.967-18.75,6.967s-13.715-2.629-18.75-6.967c-5.035,4.338-11.583,6.967-18.75,6.967
	c-0.084,0-0.166-0.005-0.25-0.006v15.002c0.084,0,0.166,0.004,0.25,0.004c6.712,0,13.067-1.517,18.75-4.219
	c5.683,2.702,12.037,4.219,18.75,4.219s13.067-1.517,18.75-4.219c5.683,2.702,12.037,4.219,18.75,4.219s13.067-1.517,18.75-4.219
	c5.611,2.669,11.88,4.178,18.5,4.215V113.494z M130.5,58.494c-7.068-0.061-13.524-2.674-18.5-6.961
	c-5.035,4.338-11.583,6.967-18.75,6.967s-13.715-2.629-18.75-6.967C69.465,55.871,62.917,58.5,55.75,58.5S42.035,55.871,37,51.533
	C31.965,55.871,25.417,58.5,18.25,58.5c-0.084,0-0.166-0.005-0.25-0.006v15.002c0.084,0,0.166,0.004,0.25,0.004
	c6.712,0,13.067-1.517,18.75-4.219c5.683,2.702,12.037,4.219,18.75,4.219s13.067-1.517,18.75-4.219
	c5.683,2.702,12.037,4.219,18.75,4.219s13.067-1.517,18.75-4.219c5.611,2.669,11.88,4.178,18.5,4.215V58.494z"/>
</svg>
