<?xml version="1.0" encoding="utf-8"?>
<!-- Generator: Adobe Illustrator 16.0.4, SVG Export Plug-In . SVG Version: 6.00 Build 0)  -->
<!DOCTYPE svg PUBLIC "-//W3C//DTD SVG 1.1//EN" "http://www.w3.org/Graphics/SVG/1.1/DTD/svg11.dtd">
<svg version="1.1" id="Ebene_1" xmlns="http://www.w3.org/2000/svg" xmlns:xlink="http://www.w3.org/1999/xlink" x="0px" y="0px"
	 width="150px" height="150px" viewBox="0 0 150 150" enable-background="new 0 0 150 150" xml:space="preserve">
<path fill="#181716" d="M24.5,55V38.5c0,0,23.506,16.213,49.889,0s50.611,0,50.611,0V55c0,0-27.959-14.512-51.111,0S24.5,55,24.5,55
	z M24.5,86c0,0,26.236,14.512,49.389,0S125,86,125,86V69.5c0,0-24.229-16.213-50.611,0s-49.889,0-49.889,0V86z M24.5,116
	c0,0,26.236,14.512,49.389,0S125,116,125,116V99.5c0,0-24.229-16.213-50.611,0s-49.889,0-49.889,0V116z"/>
</svg>
