<?xml version="1.0" encoding="utf-8"?>
<!-- Generator: Adobe Illustrator 16.0.4, SVG Export Plug-In . SVG Version: 6.00 Build 0)  -->
<!DOCTYPE svg PUBLIC "-//W3C//DTD SVG 1.1//EN" "http://www.w3.org/Graphics/SVG/1.1/DTD/svg11.dtd">
<svg version="1.1" id="Ebene_1" xmlns="http://www.w3.org/2000/svg" xmlns:xlink="http://www.w3.org/1999/xlink" x="0px" y="0px"
	 width="150px" height="150px" viewBox="0 0 150 150" enable-background="new 0 0 150 150" xml:space="preserve">
<path fill="#181716" d="M32.611,64.643L21.995,54.036c13.629-13.618,32.457-22.042,53.253-22.042
	c20.798,0,39.626,8.424,53.255,22.043l-10.616,10.606C106.975,53.74,91.9,46.995,75.249,46.995S43.523,53.739,32.611,64.643z
	 M107.271,75.25c-8.195-8.189-19.518-13.254-32.022-13.254S51.423,67.061,43.228,75.25l10.618,10.608
	c5.48-5.464,13.047-8.844,21.403-8.844c8.357,0,15.925,3.38,21.404,8.845L107.271,75.25z M60.48,107.003
	c0,8.282,6.725,14.996,15.02,14.996s15.02-6.714,15.02-14.996c0-8.282-6.725-14.996-15.02-14.996S60.48,98.721,60.48,107.003z"/>
</svg>
