<?xml version="1.0" encoding="UTF-8" standalone="no"?>
<!-- Generator: Adobe Illustrator 16.0.0, SVG Export Plug-In . SVG Version: 6.00 Build 0)  -->

<svg
   xmlns:dc="http://purl.org/dc/elements/1.1/"
   xmlns:cc="http://creativecommons.org/ns#"
   xmlns:rdf="http://www.w3.org/1999/02/22-rdf-syntax-ns#"
   xmlns:svg="http://www.w3.org/2000/svg"
   xmlns="http://www.w3.org/2000/svg"
   xmlns:sodipodi="http://sodipodi.sourceforge.net/DTD/sodipodi-0.dtd"
   xmlns:inkscape="http://www.inkscape.org/namespaces/inkscape"
   version="1.1"
   id="Capa_1"
   x="0px"
   y="0px"
   width="268.832px"
   height="268.832px"
   viewBox="0 0 268.832 268.832"
   style="enable-background:new 0 0 268.832 268.832;"
   xml:space="preserve"
   inkscape:version="0.48.5 r10040"
   sodipodi:docname="down126.svg"><metadata
     id="metadata11"><rdf:RDF><cc:Work
         rdf:about=""><dc:format>image/svg+xml</dc:format><dc:type
           rdf:resource="http://purl.org/dc/dcmitype/StillImage" /></cc:Work></rdf:RDF></metadata><defs
     id="defs9" /><sodipodi:namedview
     pagecolor="#ffffff"
     bordercolor="#666666"
     borderopacity="1"
     objecttolerance="10"
     gridtolerance="10"
     guidetolerance="10"
     inkscape:pageopacity="0"
     inkscape:pageshadow="2"
     inkscape:window-width="640"
     inkscape:window-height="480"
     id="namedview7"
     showgrid="false"
     inkscape:zoom="0.87787168"
     inkscape:cx="134.416"
     inkscape:cy="134.416"
     inkscape:window-x="0"
     inkscape:window-y="27"
     inkscape:window-maximized="0"
     inkscape:current-layer="Capa_1" /><g
     id="g3"
     transform="matrix(0,1,-1,0,268.83162,3.75e-4)"><path
       d="m 223.255,167.493 c -4.881,-4.882 -12.797,-4.882 -17.678,0 l -58.661,58.661 V 12.5 c 0,-6.903 -5.598,-12.5 -12.5,-12.5 -6.904,0 -12.5,5.597 -12.5,12.5 V 226.154 L 63.255,167.495 c -4.883,-4.881 -12.797,-4.881 -17.678,0 -4.883,4.882 -4.883,12.796 0,17.678 l 80,79.998 c 2.439,2.44 5.64,3.661 8.839,3.661 3.199,0 6.397,-1.221 8.839,-3.661 l 80,-80 c 4.882,-4.882 4.882,-12.796 0,-17.678 z"
       id="path5"
       inkscape:connector-curvature="0" /></g></svg>