<?xml version="1.0" encoding="utf-8"?>
<!-- Generator: Adobe Illustrator 15.0.0, SVG Export Plug-In . SVG Version: 6.00 Build 0)  -->
<!DOCTYPE svg PUBLIC "-//W3C//DTD SVG 1.1//EN" "http://www.w3.org/Graphics/SVG/1.1/DTD/svg11.dtd">
<svg version="1.1" xmlns="http://www.w3.org/2000/svg" xmlns:xlink="http://www.w3.org/1999/xlink" x="0px" y="0px" width="580px"
	 height="580px" viewBox="0 0 580 580" enable-background="new 0 0 580 580" xml:space="preserve">
<g id="Layer_2">
	<g id="g1327">
		<path id="path1329" fill="#7F5500" stroke="#EEEEEE" stroke-width="3.408" d="M66.275,1.768
			c-41.335,0-64.571,21.371-64.571,65.036v450.123c0,40.844,20.894,62.229,62.192,62.229H515.92
			c41.307,0,62.229-20.316,62.229-62.229V66.804c0-42.601-20.923-65.036-63.522-65.036C514.624,1.768,66.133,1.625,66.275,1.768z"/>
	</g>
</g>
<g id="svg2" inkscape:output_extension="org.inkscape.output.svg.inkscape" inkscape:version="0.46" sodipodi:docname="waste_bin.svg" sodipodi:version="0.32" xmlns:inkscape="http://www.inkscape.org/namespaces/inkscape" xmlns:rdf="http://www.w3.org/1999/02/22-rdf-syntax-ns#" xmlns:svg="http://www.w3.org/2000/svg" xmlns:sodipodi="http://sodipodi.sourceforge.net/DTD/sodipodi-0.dtd" xmlns:cc="http://creativecommons.org/ns#" xmlns:dc="http://purl.org/dc/elements/1.1/">
	<path fill="#FFFFFF" d="M544.611,123.798c-40.722,32.431-86.687,42.113-136.617,28.784c-16.542-4.416-30.809-10.766-41.621-16.508
		c4.27-2.786,7.098-7.596,7.098-13.075c0-8.621-6.989-15.61-15.61-15.61h-52.722V58.575h-40v48.815h-49.6
		c-8.621,0-15.61,6.989-15.61,15.61c0,6.965,4.563,12.859,10.861,14.869c-34.348,19.22-71.953,23.514-112.143,12.727
		c-37.346-10.023-63.054-30.018-63.307-30.216l-5.507,6.983c1.092,0.86,27.17,21.191,66.19,31.737
		c12.768,3.451,27.794,6.017,44.244,6.017c26.273,0,56.177-6.555,86.297-26.507h38.573v382.815h40V138.61h47.5
		c11.636,6.991,29.992,16.389,52.737,22.503c12.833,3.45,27.936,6.016,44.473,6.016c30.354,0,65.53-8.649,100.317-36.355
		L544.611,123.798z"/>
</g>
</svg>
